<?xml version="1.0" standalone="no"?>
<!DOCTYPE svg PUBLIC "-//W3C//DTD SVG 20010904//EN"
 "http://www.w3.org/TR/2001/REC-SVG-20010904/DTD/svg10.dtd">
<svg version="1.0" xmlns="http://www.w3.org/2000/svg"
 width="441.000000pt" height="613.000000pt" viewBox="0 0 441.000000 613.000000"
 preserveAspectRatio="xMidYMid meet">

<g transform="translate(0.000000,613.000000) scale(0.100000,-0.100000)"
fill="#000000" stroke="none">
<path d="M22 6030 c-7 -12 -8 -20 -2 -20 5 0 10 -5 10 -11 0 -5 -4 -7 -10 -4
-13 8 -13 -1 1 -27 8 -15 8 -19 0 -14 -15 10 -14 -37 1 -52 8 -8 8 -12 1 -12
-6 0 -10 -11 -9 -25 0 -14 5 -25 9 -25 5 0 5 -5 1 -11 -3 -6 -8 -90 -9 -185
-2 -141 0 -171 10 -157 7 10 12 29 11 43 -1 14 0 29 2 33 6 13 8 467 2 477 -3
5 -11 0 -18 -10z"/>
<path d="M654 6008 c-4 -6 -10 -25 -13 -41 -9 -43 -28 -45 -23 -3 3 28 0 35
-17 41 -47 14 -80 -22 -49 -53 19 -19 37 -14 31 8 -3 11 0 20 6 20 20 0 23
-27 7 -59 -9 -16 -16 -36 -15 -43 0 -7 5 -1 11 15 12 33 39 38 31 5 -3 -13
-10 -28 -14 -34 -5 -6 -4 -11 4 -12 6 -1 28 -3 47 -4 24 -3 36 -9 40 -23 3
-13 14 -20 30 -20 19 0 26 6 28 25 2 22 1 23 -8 8 -15 -24 -37 -23 -45 1 -4
13 1 27 14 40 12 12 21 28 21 36 0 24 -34 56 -56 53 -24 -4 -31 14 -10 27 11
7 23 6 38 -4 23 -14 23 -14 4 8 -21 23 -51 28 -62 9z"/>
<path d="M945 5982 c2 -45 -5 -69 -15 -52 -4 6 -7 -3 -8 -20 -1 -39 -36 -96
-70 -115 -15 -8 -21 -14 -13 -15 23 0 86 73 99 116 9 32 19 43 48 54 31 13 33
16 18 27 -15 11 -13 13 12 19 25 6 26 8 9 14 -14 5 -28 1 -44 -14 -13 -11 -21
-16 -18 -10 4 7 1 17 -6 23 -11 9 -13 3 -12 -27z"/>
<path d="M3481 6007 c-14 -6 -27 -19 -29 -27 -4 -12 -1 -12 14 2 11 9 31 21
44 27 14 5 18 10 10 10 -8 0 -26 -5 -39 -12z"/>
<path d="M3540 6011 c0 -6 5 -11 11 -11 7 0 18 -8 26 -17 9 -12 13 -13 11 -4
-5 19 -48 48 -48 32z"/>
<path d="M3660 6005 c-15 -18 1 -20 18 -3 8 8 15 8 27 -2 24 -20 18 -32 -14
-25 -55 12 -76 -65 -28 -108 37 -32 88 -12 83 34 -4 35 13 34 31 -2 7 -13 13
-19 13 -13 0 6 -7 25 -16 43 -12 25 -13 35 -4 46 15 18 31 10 23 -12 -8 -20
17 -13 31 9 11 18 -7 48 -30 48 -21 0 -44 -29 -44 -56 0 -13 -4 -24 -10 -24
-5 0 -10 11 -10 24 0 13 -3 31 -6 40 -8 20 -48 21 -64 1z"/>
<path d="M3900 6013 c-32 -12 -73 -60 -100 -119 -34 -72 -54 -92 -74 -75 -12
10 -15 7 -20 -17 -7 -31 -50 -62 -86 -62 -16 0 -20 -4 -16 -15 3 -8 1 -27 -5
-41 -9 -26 -9 -27 25 -21 18 3 38 1 43 -4 7 -7 13 4 17 32 7 45 36 79 68 79
11 0 16 5 13 10 -4 6 -11 7 -18 3 -6 -3 -1 8 12 25 12 18 29 32 37 32 8 0 22
4 32 10 9 5 33 16 53 25 43 19 78 64 86 111 5 32 4 34 -23 33 -16 0 -36 -3
-44 -6z m-9 -32 c-13 -10 -32 -29 -43 -42 -17 -22 -18 -22 -9 -2 11 21 57 63
70 63 3 0 -5 -9 -18 -19z m38 -47 c-13 -14 -33 -30 -44 -36 -11 -6 -2 7 20 28
44 43 62 49 24 8z"/>
<path d="M51 5994 c0 -11 3 -14 6 -6 3 7 2 16 -1 19 -3 4 -6 -2 -5 -13z"/>
<path d="M403 5974 c10 -58 33 -83 112 -120 41 -19 81 -42 90 -50 14 -15 14
-18 -2 -31 -10 -8 -13 -12 -7 -9 17 8 74 -32 84 -59 5 -14 7 -32 4 -40 -7 -17
11 -21 21 -5 4 7 12 7 25 0 33 -18 42 -12 35 20 -4 20 -2 37 6 46 11 13 10 15
-2 13 -41 -9 -129 47 -114 71 3 5 -7 8 -22 7 -24 -2 -31 6 -67 77 -44 84 -82
116 -140 116 -27 0 -28 -2 -23 -36z m92 -4 c10 -11 16 -20 13 -20 -3 0 -13 9
-23 20 -10 11 -16 20 -13 20 3 0 13 -9 23 -20z m-22 -64 c17 -14 29 -26 25
-26 -13 0 -78 62 -78 74 0 6 5 3 10 -6 6 -9 25 -28 43 -42z"/>
<path d="M788 5996 c-10 -7 -17 -24 -17 -37 1 -21 2 -21 6 -4 3 11 12 28 21
38 18 20 14 22 -10 3z"/>
<path d="M876 5998 c12 -5 27 -20 32 -32 6 -11 11 -15 11 -8 1 16 -35 52 -51
51 -7 0 -3 -5 8 -11z"/>
<path d="M1140 6000 c0 -5 6 -10 14 -10 19 0 27 -25 13 -39 -8 -8 -7 -11 4
-11 9 0 21 11 27 25 13 28 28 31 56 10 17 -13 23 -12 49 3 23 13 31 14 34 5 3
-7 14 -13 26 -13 17 0 15 4 -13 19 -32 17 -37 17 -52 4 -15 -13 -22 -14 -47
-3 -16 6 -34 9 -40 6 -5 -4 -12 -2 -16 4 -8 13 -55 13 -55 0z"/>
<path d="M3177 5999 c-9 -6 -22 -7 -28 -4 -6 4 -19 -1 -30 -11 -17 -15 -24
-16 -39 -6 -26 16 -38 15 -56 -3 -9 -8 -12 -15 -7 -15 5 0 15 6 21 12 10 10
17 10 32 0 24 -15 50 -16 50 -2 0 22 36 8 53 -21 14 -25 22 -30 41 -25 18 4
25 1 29 -14 3 -14 14 -20 31 -20 14 0 26 -5 26 -11 0 -6 9 -8 20 -4 11 3 20 2
20 -4 0 -14 -22 -26 -45 -23 l-20 2 20 -9 c25 -11 65 23 65 55 0 29 -38 58
-56 43 -8 -6 -12 -16 -11 -21 4 -18 -20 -20 -37 -2 -16 15 -16 18 0 35 9 11
14 19 9 19 -4 0 -2 7 5 15 14 17 70 21 70 5 0 -5 10 -10 21 -10 18 0 19 2 9
15 -26 31 -130 8 -130 -29 0 -8 -7 -20 -16 -27 -14 -11 -18 -10 -30 6 -15 21
-10 31 21 37 20 4 20 4 0 15 -14 8 -26 8 -38 2z"/>
<path d="M3390 5985 c-7 -13 -17 -23 -23 -22 -5 1 -11 -2 -13 -8 -2 -5 8 -11
22 -11 14 -1 31 -9 37 -18 10 -13 11 -7 9 34 -4 56 -12 62 -32 25z"/>
<path d="M2051 5986 c-11 -12 -17 -14 -27 -5 -11 9 -14 9 -14 0 0 -18 31 -26
41 -10 6 11 11 11 21 1 17 -17 35 -15 42 4 5 14 4 15 -9 4 -13 -11 -18 -10
-28 4 -12 16 -14 16 -26 2z"/>
<path d="M1100 5975 c0 -8 5 -15 10 -15 18 0 10 -39 -10 -50 -17 -9 -22 -7
-30 15 -10 27 -29 32 -48 13 -17 -17 -15 -63 5 -79 15 -13 15 -12 3 11 -10 21
-10 23 1 13 18 -18 39 -16 39 3 0 8 4 13 8 10 5 -3 18 2 30 10 25 17 29 84 5
84 -7 0 -13 -7 -13 -15z m-50 -59 c0 -2 -7 -7 -16 -10 -8 -3 -12 -2 -9 4 6 10
25 14 25 6z"/>
<path d="M1396 5975 c7 -17 40 -20 49 -5 5 8 11 7 21 -1 16 -13 44 -5 44 12 0
8 -5 8 -16 -2 -13 -10 -17 -10 -24 2 -8 12 -13 12 -32 0 -16 -10 -23 -10 -26
-2 -2 6 -8 11 -13 11 -4 0 -6 -7 -3 -15z"/>
<path d="M1520 5982 c0 -18 28 -26 44 -13 10 9 16 8 26 -4 10 -12 16 -13 26
-4 8 6 14 16 14 22 0 7 -4 7 -12 -1 -9 -9 -15 -9 -26 0 -10 9 -18 9 -32 1 -13
-9 -20 -9 -29 0 -8 8 -11 8 -11 -1z"/>
<path d="M1640 5982 c0 -5 6 -15 14 -21 10 -9 16 -8 26 4 10 12 16 13 26 4 11
-9 14 -9 14 0 0 18 -31 26 -40 11 -7 -11 -11 -11 -24 -1 -9 8 -16 9 -16 3z"/>
<path d="M1737 5983 c-4 -3 -7 -11 -7 -17 0 -6 5 -5 12 2 6 6 9 14 7 17 -3 3
-9 2 -12 -2z"/>
<path d="M1766 5975 c7 -18 40 -20 48 -2 3 8 8 7 16 -6 11 -17 13 -17 30 -2
18 16 20 16 36 0 17 -16 18 -16 32 1 10 13 16 15 19 7 7 -18 40 -16 47 2 7 18
-10 20 -17 3 -4 -10 -8 -9 -16 2 -9 13 -13 13 -33 1 -16 -10 -23 -10 -26 -2
-2 6 -12 11 -22 11 -10 0 -20 -5 -22 -11 -3 -8 -10 -8 -26 2 -20 12 -24 12
-33 -1 -8 -11 -12 -12 -16 -2 -7 17 -24 15 -17 -3z"/>
<path d="M2136 5976 c7 -19 25 -21 42 -4 10 10 15 10 21 -1 10 -16 41 -8 41
11 0 9 -3 9 -11 1 -9 -9 -16 -9 -31 0 -15 10 -20 9 -28 -2 -7 -12 -11 -13 -24
-1 -14 11 -16 10 -10 -4z"/>
<path d="M2256 5976 c7 -18 25 -21 40 -6 8 8 15 6 23 -4 13 -15 41 -11 41 6 0
5 -5 6 -10 3 -6 -4 -17 -1 -25 5 -12 10 -18 10 -30 0 -12 -10 -18 -10 -30 0
-13 11 -14 10 -9 -4z"/>
<path d="M2380 5978 c0 -21 35 -25 44 -5 3 9 8 7 16 -5 12 -19 35 -14 44 9 5
13 4 14 -9 3 -12 -10 -18 -10 -30 0 -12 10 -18 10 -31 -1 -13 -10 -17 -10 -25
2 -7 11 -9 11 -9 -3z"/>
<path d="M2500 5981 c0 -6 4 -13 10 -16 6 -3 7 1 4 9 -7 18 -14 21 -14 7z"/>
<path d="M2537 5983 c-14 -13 -6 -25 8 -13 10 9 15 9 15 1 0 -17 37 -13 44 5
6 15 4 15 -10 3 -13 -11 -18 -11 -21 -1 -5 13 -25 16 -36 5z"/>
<path d="M2620 5984 c0 -6 6 -17 14 -23 10 -9 16 -7 27 5 12 14 14 14 26 -2
10 -14 15 -15 28 -4 8 7 15 17 15 23 0 6 -6 3 -13 -7 -12 -16 -14 -16 -26 -2
-13 15 -15 15 -32 1 -16 -15 -18 -15 -28 2 -6 10 -11 13 -11 7z"/>
<path d="M2740 5985 c0 -6 5 -16 12 -23 9 -9 16 -8 28 3 15 14 19 14 30 0 10
-12 16 -13 26 -4 8 6 14 16 14 22 0 6 -6 2 -14 -8 -13 -18 -13 -18 -24 1 -10
18 -12 18 -28 2 -16 -16 -18 -16 -30 0 -8 9 -14 12 -14 7z"/>
<path d="M2860 5984 c0 -6 6 -17 14 -23 11 -9 17 -9 28 3 11 12 15 12 30 -1
17 -15 38 -10 38 10 0 8 -3 8 -11 0 -9 -9 -15 -8 -27 3 -13 13 -16 13 -32 -1
-17 -15 -19 -15 -29 2 -6 10 -11 13 -11 7z"/>
<path d="M815 5951 c11 -5 28 -17 37 -28 9 -10 24 -25 34 -32 16 -14 17 -13
11 10 -4 13 -7 31 -7 39 0 11 -13 16 -48 17 -34 2 -41 0 -27 -6z"/>
<path d="M3493 5943 c-18 -12 -23 -25 -23 -61 0 -49 -18 -49 -22 0 -1 15 -6
24 -11 21 -4 -2 -5 -13 -2 -22 4 -14 -4 -21 -35 -31 -31 -10 -40 -18 -40 -36
0 -16 -7 -24 -22 -26 -18 -2 -20 -5 -7 -10 19 -7 80 20 78 36 -3 29 2 37 24
34 14 -2 21 -9 21 -21 -1 -10 0 -16 3 -13 3 3 19 -6 35 -19 42 -36 55 -31 14
5 -34 30 -38 56 -14 87 5 7 4 13 -4 15 -9 3 -9 6 0 12 7 4 12 2 12 -3 0 -6 5
-11 10 -11 6 0 10 9 10 20 0 10 8 24 18 29 16 10 15 10 -3 10 -11 0 -30 -7
-42 -16z"/>
<path d="M3587 5943 c-12 -12 -7 -19 14 -20 17 -2 18 1 9 13 -14 16 -14 16
-23 7z"/>
<path d="M770 5922 c0 -6 4 -13 8 -16 10 -6 8 -56 -3 -99 -5 -18 -3 -33 5 -40
9 -9 11 -8 8 8 -2 13 8 27 35 44 45 30 53 71 12 71 -13 0 -33 10 -45 22 -11
12 -20 17 -20 10z m57 -74 c-3 -7 -5 -2 -5 12 0 14 2 19 5 13 2 -7 2 -19 0
-25z"/>
<path d="M3536 5883 l-40 -26 27 -23 c15 -13 34 -27 43 -32 20 -11 11 -49 -14
-55 -16 -4 -16 -5 0 -6 28 -2 51 29 43 58 -4 14 -7 38 -6 53 0 15 -4 30 -10
33 -5 4 -7 11 -4 16 8 13 5 11 -39 -18z m11 -20 c-4 -3 1 -15 10 -26 17 -19
17 -20 -4 -8 -24 12 -32 41 -11 41 6 0 8 -3 5 -7z"/>
<path d="M420 5865 c-6 -7 -10 -24 -8 -37 5 -35 66 -42 102 -11 30 25 22 32
-10 8 -26 -20 -64 -19 -64 1 0 10 6 14 15 10 22 -8 19 21 -4 33 -14 8 -22 7
-31 -4z"/>
<path d="M3900 5866 c-17 -17 -11 -28 11 -21 17 6 20 3 17 -12 -4 -22 -25 -24
-58 -6 l-25 14 24 -20 c26 -23 66 -28 77 -9 11 18 12 48 2 48 -5 0 -7 4 -3 9
7 13 -32 10 -45 -3z"/>
<path d="M940 5862 c0 -7 5 -12 10 -12 6 0 10 -11 10 -25 0 -20 6 -25 36 -31
19 -3 40 -2 45 3 6 6 1 9 -13 9 -17 -1 -24 5 -26 22 -2 13 -10 22 -21 22 -9 0
-22 5 -29 12 -9 9 -12 9 -12 0z m44 -38 c3 -8 2 -12 -4 -9 -6 3 -10 10 -10 16
0 14 7 11 14 -7z"/>
<path d="M3601 5848 c-1 -27 2 -30 32 -32 6 -1 19 -8 27 -16 8 -9 12 -11 8 -6
-5 6 -8 21 -9 36 0 14 -3 19 -6 13 -8 -21 -33 -15 -43 10 -8 21 -9 21 -9 -5z"/>
<path d="M3800 5790 c-6 -12 -8 -30 -5 -42 7 -19 4 -20 -35 -16 -31 3 -38 1
-27 -7 8 -6 17 -22 19 -35 2 -15 11 -26 23 -28 16 -3 18 -1 8 9 -19 19 -16 46
6 52 12 3 28 -6 45 -25 l26 -30 32 32 c20 20 27 34 20 39 -16 10 3 35 22 28
19 -8 21 -38 4 -56 -11 -10 -10 -11 4 -6 40 15 29 75 -14 75 -11 0 -27 4 -37
10 -10 5 -32 12 -49 15 -25 4 -34 1 -42 -15z"/>
<path d="M492 5788 c-6 -6 -24 -11 -40 -10 -41 1 -64 -40 -38 -66 17 -16 18
-16 11 6 -8 27 13 61 26 41 4 -7 4 -21 -2 -30 -6 -13 -3 -21 16 -33 30 -20 65
-13 95 19 18 19 20 29 13 52 -7 21 -17 28 -40 30 -16 1 -35 -3 -41 -9z"/>
<path d="M3619 5783 c-13 -16 -12 -17 4 -4 16 13 21 21 13 21 -2 0 -10 -8 -17
-17z"/>
<path d="M725 5780 c3 -5 14 -10 23 -10 15 0 15 2 2 10 -20 13 -33 13 -25 0z"/>
<path d="M595 5720 c-25 -6 -27 -8 -12 -14 21 -10 22 -20 0 -41 -16 -16 -15
-17 2 -14 11 3 22 17 27 36 4 17 16 34 26 36 29 8 -10 5 -43 -3z"/>
<path d="M637 5679 c4 -13 8 -18 11 -10 2 7 -1 18 -6 23 -8 8 -9 4 -5 -13z"/>
<path d="M3711 5670 c-1 -8 -4 -26 -7 -40 -5 -21 -4 -22 6 -7 17 27 39 20 57
-18 25 -53 73 -60 73 -10 0 13 6 30 14 38 12 11 6 14 -43 14 -70 0 -84 4 -93
23 -6 13 -7 13 -7 0z"/>
<path d="M490 5655 c-10 -12 -9 -16 4 -21 9 -4 20 -4 23 0 4 3 -2 6 -12 6 -14
0 -15 3 -5 15 7 8 10 15 7 15 -2 0 -10 -7 -17 -15z"/>
<path d="M602 5641 c-7 -4 -24 -6 -36 -4 -13 3 -27 0 -31 -7 -7 -12 12 -59 30
-72 11 -8 45 20 45 37 0 15 38 50 46 43 9 -10 -23 -75 -45 -90 -11 -8 -18 -18
-14 -21 3 -4 1 -7 -5 -7 -7 0 -12 5 -12 11 0 5 -4 8 -10 4 -5 -3 -18 3 -30 15
-11 11 -25 20 -32 20 -6 0 -20 8 -31 18 -16 13 -19 14 -14 2 21 -53 33 -68 57
-67 47 0 61 -3 55 -13 -3 -5 -2 -10 3 -10 17 0 82 79 82 99 0 11 5 21 12 23 6
2 8 10 4 16 -8 14 -55 16 -74 3z"/>
<path d="M426 5618 c-25 -35 -20 -83 10 -107 15 -12 34 -21 43 -21 9 1 2 7
-15 14 -52 23 -61 82 -18 115 19 15 22 21 11 21 -9 0 -23 -10 -31 -22z"/>
<path d="M3955 5605 c8 -42 -14 -78 -55 -92 -28 -9 -30 -12 -12 -12 13 -1 36
12 53 28 29 30 37 64 19 91 -7 11 -9 7 -5 -15z"/>
<path d="M3885 5594 c-28 -30 -47 -64 -36 -64 6 0 15 8 20 18 6 9 11 11 11 5
0 -7 4 -13 9 -13 8 0 26 70 19 74 -2 1 -12 -8 -23 -20z"/>
<path d="M670 5599 c0 -5 5 -7 10 -4 6 3 10 8 10 11 0 2 -4 4 -10 4 -5 0 -10
-5 -10 -11z"/>
<path d="M1248 5470 c3 -89 1 -134 -7 -144 -6 -7 -9 -21 -5 -29 7 -18 38 -23
109 -19 l50 4 0 159 0 159 -76 0 -76 0 5 -130z m84 -35 c-2 -63 -7 -115 -13
-115 -8 0 -10 23 -11 135 -1 76 2 95 15 95 9 0 11 -28 9 -115z"/>
<path d="M1415 5440 l0 -160 38 0 c33 0 37 3 37 25 0 14 -4 25 -10 25 -5 0 -9
18 -8 40 1 34 5 40 23 40 45 0 60 23 59 94 -1 84 -11 96 -83 96 l-56 0 0 -160z
m85 64 c0 -33 -4 -44 -16 -44 -12 0 -15 9 -13 43 3 49 7 59 20 52 5 -4 9 -26
9 -51z"/>
<path d="M1575 5440 l0 -160 73 0 72 0 0 50 c0 34 -4 50 -13 50 -15 0 -21 106
-6 116 5 3 9 27 9 55 l0 49 -67 0 -68 0 0 -160z m87 85 c3 -14 1 -25 -3 -25
-5 0 -9 -10 -9 -22 0 -37 -12 -11 -14 31 -3 46 18 58 26 16z m-1 -145 c13 0 7
-49 -7 -54 -8 -3 -13 9 -16 34 -4 43 4 79 10 43 2 -13 8 -23 13 -23z"/>
<path d="M1762 5591 c-42 -26 -43 -275 0 -302 7 -5 27 -9 45 -9 45 0 63 30 63
102 0 55 -1 58 -25 58 -22 0 -24 -4 -27 -55 -5 -98 -23 -60 -26 56 -2 87 0
110 10 107 7 -3 14 -19 16 -36 2 -24 8 -32 23 -32 17 0 19 7 19 59 l0 58 -43
1 c-23 1 -48 -2 -55 -7z"/>
<path d="M1887 5593 c-4 -3 -7 -35 -7 -70 0 -56 2 -63 20 -63 13 0 20 7 20 20
0 11 5 20 10 20 6 0 8 -16 6 -37 -3 -21 -8 -71 -11 -110 l-5 -73 38 0 39 0 -3
133 c-1 72 0 113 3 90 3 -34 8 -43 24 -43 17 0 19 7 19 70 l0 70 -73 0 c-41 0
-77 -3 -80 -7z m50 -75 c-3 -7 -5 -2 -5 12 0 14 2 19 5 13 2 -7 2 -19 0 -25z"/>
<path d="M2050 5580 c0 -11 4 -28 10 -38 15 -28 61 -203 56 -216 -2 -6 -5 -1
-5 12 -1 15 -7 22 -21 22 -15 0 -20 -7 -20 -29 0 -56 65 -74 85 -24 4 10 16
68 26 128 11 61 22 122 26 138 l5 27 -81 0 c-75 0 -81 -2 -81 -20z m99 -52 c0
-13 -4 -32 -9 -43 l-9 -20 0 20 c-1 11 -4 30 -7 43 -5 16 -2 22 10 22 10 0 16
-8 15 -22z"/>
<path d="M2228 5470 c3 -95 1 -134 -8 -145 -7 -8 -10 -22 -6 -30 4 -12 23 -15
87 -15 74 0 80 2 73 18 -10 24 -13 251 -3 258 5 3 9 14 9 25 0 17 -7 19 -78
19 l-79 0 5 -130z m80 -32 c-2 -67 -7 -113 -13 -113 -6 0 -11 46 -13 113 -2
96 0 112 13 112 13 0 15 -16 13 -112z"/>
<path d="M2450 5582 c0 -10 4 -22 9 -27 6 -6 4 -41 -5 -89 -18 -105 -22 -116
-44 -116 -23 0 -36 -36 -20 -55 18 -22 47 -18 64 8 8 12 21 54 30 92 l14 70 1
-67 c1 -37 -3 -69 -8 -72 -5 -3 -7 -15 -4 -26 4 -16 14 -20 44 -20 35 0 39 3
39 25 0 14 -5 25 -10 25 -12 0 -8 215 3 227 4 3 7 15 7 25 0 15 -8 18 -60 18
-51 0 -60 -3 -60 -18z"/>
<path d="M2585 5440 l0 -160 66 0 67 0 5 43 c3 28 0 46 -9 53 -16 13 -20 134
-4 134 6 0 10 20 10 45 l0 45 -67 0 -68 0 0 -160z m87 85 c3 -14 1 -25 -3 -25
-5 0 -9 -9 -9 -21 0 -11 -4 -17 -10 -14 -16 10 -13 85 4 85 7 0 16 -11 18 -25z
m-12 -120 c0 -8 7 -15 16 -15 13 0 14 -3 4 -15 -7 -8 -10 -22 -6 -30 3 -10 -1
-15 -12 -15 -13 0 -17 10 -18 45 -1 25 2 45 7 45 5 0 9 -7 9 -15z"/>
<path d="M2737 5578 c4 -13 8 -85 8 -160 l0 -138 70 0 70 0 0 160 0 160 -78 0
c-77 0 -78 0 -70 -22z m93 -74 c0 -32 -4 -44 -15 -44 -11 0 -15 11 -15 43 0
24 3 47 6 50 14 14 24 -6 24 -49z m-2 -131 c-2 -27 -7 -48 -13 -48 -5 0 -11
21 -13 48 -3 38 0 47 13 47 13 0 16 -9 13 -47z"/>
<path d="M2906 5593 c-10 -11 -7 -43 5 -43 8 0 10 -39 7 -135 l-5 -135 31 0
31 0 0 158 0 159 -31 1 c-17 1 -34 -2 -38 -5z"/>
<path d="M2994 5591 c-7 -7 -5 -41 4 -41 9 0 7 -194 -3 -237 l-7 -33 76 0 76
0 0 51 c0 38 -3 50 -13 46 -10 -4 -13 10 -12 52 0 50 -2 56 -22 59 -14 2 -23
-3 -26 -15 -3 -10 -5 3 -6 30 -1 47 15 66 21 25 2 -15 11 -24 26 -26 20 -3 22
1 22 37 0 23 0 44 0 47 0 7 -129 12 -136 5z m94 -211 c5 0 7 -13 4 -30 -2 -17
-10 -30 -18 -30 -10 0 -14 14 -13 53 0 41 2 47 9 30 5 -13 13 -23 18 -23z"/>
<path d="M3774 5528 c32 -27 33 -63 1 -63 -25 0 -49 -50 -35 -73 8 -15 9 -14
10 5 0 12 8 24 19 28 23 7 54 77 38 86 -5 4 -2 9 9 12 16 4 15 5 -4 6 -13 0
-33 6 -45 12 -16 8 -14 4 7 -13z"/>
<path d="M3844 5495 c11 -8 25 -15 31 -15 5 0 17 -16 26 -36 l16 -36 21 36
c12 21 22 38 22 40 0 1 -15 1 -32 0 -18 -2 -46 4 -62 12 -37 18 -46 18 -22 -1z"/>
<path d="M510 5490 c12 -8 12 -10 1 -10 -8 0 -12 -3 -9 -6 4 -3 19 1 35 10
l28 15 -35 0 c-26 1 -31 -2 -20 -9z"/>
<path d="M570 5483 c0 -25 24 -63 41 -63 10 0 23 -8 28 -17 9 -16 10 -16 11 4
0 12 -4 25 -10 28 -5 3 -10 16 -11 28 0 12 -3 16 -6 10 -7 -19 -30 -16 -42 5
-6 9 -11 12 -11 5z"/>
<path d="M432 5472 c-23 -3 -23 -4 -6 -23 12 -13 15 -23 8 -27 -22 -14 -23
-68 -3 -101 11 -18 23 -30 28 -27 13 8 34 -22 27 -39 -9 -23 -36 -18 -36 7 0
21 -1 21 -17 6 -13 -13 -14 -20 -4 -31 6 -8 8 -22 5 -31 -4 -10 1 -25 11 -36
17 -19 17 -21 0 -40 -17 -19 -17 -21 1 -41 15 -16 16 -24 7 -39 -10 -14 -9
-21 2 -30 11 -9 12 -16 2 -31 -10 -16 -9 -21 1 -28 11 -7 12 -12 1 -29 -10
-16 -10 -24 -1 -35 10 -11 9 -17 -3 -27 -14 -12 -14 -15 0 -30 14 -15 14 -18
0 -30 -14 -12 -14 -15 0 -31 15 -16 15 -18 -2 -28 -17 -9 -17 -11 -1 -27 15
-15 15 -19 2 -39 -13 -20 -13 -23 2 -29 16 -6 16 -8 0 -25 -15 -16 -15 -19 -1
-31 14 -12 14 -15 -2 -32 -17 -19 -17 -20 0 -33 15 -11 16 -14 2 -25 -14 -11
-14 -15 0 -30 11 -12 12 -19 3 -28 -9 -9 -9 -12 0 -12 17 0 27 29 14 42 -7 7
-7 16 1 30 10 16 9 21 -6 29 -18 10 -18 11 0 24 15 11 16 17 6 33 -9 15 -9 22
0 31 9 9 9 16 0 30 -9 14 -9 21 0 30 8 8 9 16 1 29 -8 12 -8 22 0 35 9 14 7
21 -6 31 -15 11 -15 13 4 25 18 11 19 14 4 30 -15 16 -15 19 -1 31 14 12 14
15 -1 31 -15 17 -15 19 0 25 20 8 21 30 0 42 -14 8 -14 10 0 21 22 18 20 28
-5 36 -19 6 -20 8 -3 26 16 18 16 20 -1 39 -14 16 -16 23 -7 32 17 17 15 43
-4 58 -13 12 -11 17 18 44 19 17 33 37 32 44 -1 6 -2 16 -3 21 0 5 -17 16 -36
25 -28 14 -35 23 -35 46 0 16 5 32 10 35 6 4 8 10 5 15 -3 5 -1 11 4 14 5 3
12 -2 16 -12 7 -16 8 -15 15 3 20 48 5 65 -48 57z"/>
<path d="M12 5440 c0 -14 2 -19 5 -12 2 6 2 18 0 25 -3 6 -5 1 -5 -13z"/>
<path d="M3940 5429 c0 -6 5 -19 10 -29 12 -23 -6 -70 -27 -70 -7 0 -13 -4
-13 -10 0 -17 -42 -11 -57 8 -11 13 -13 13 -10 2 5 -20 49 -42 61 -30 4 4 14
7 20 4 19 -7 47 67 40 104 -6 29 -24 46 -24 21z"/>
<path d="M3804 5395 c-9 -14 -14 -28 -11 -31 3 -3 8 4 12 15 9 28 22 27 21 -1
-1 -19 4 -23 28 -21 37 3 50 22 29 45 -23 26 -60 22 -79 -7z m63 -17 c-3 -8
-6 -5 -6 6 -1 11 2 17 5 13 3 -3 4 -12 1 -19z"/>
<path d="M490 5391 c-8 -16 -5 -23 18 -40 22 -16 25 -22 15 -32 -19 -19 -16
-34 3 -18 8 7 13 21 11 30 -3 10 1 20 9 23 8 3 11 12 7 22 -4 12 -2 15 8 12 8
-3 14 -15 13 -27 0 -11 3 -21 8 -21 12 0 10 44 -4 58 -19 19 -76 15 -88 -7z"/>
<path d="M12 5280 c0 -19 2 -27 5 -17 2 9 2 25 0 35 -3 9 -5 1 -5 -18z"/>
<path d="M3940 5272 c0 -23 -30 -25 -47 -3 -9 11 -12 12 -13 3 0 -7 14 -26 32
-42 31 -29 31 -30 13 -50 -10 -11 -14 -20 -9 -20 14 0 34 38 28 54 -3 8 -1 17
5 21 14 8 14 42 1 50 -5 3 -10 -2 -10 -13z"/>
<path d="M13 5205 c0 -22 2 -30 4 -17 2 12 2 30 0 40 -3 9 -5 -1 -4 -23z"/>
<path d="M3920 5143 c0 -5 5 -14 12 -21 9 -9 7 -16 -7 -32 -14 -16 -15 -22 -5
-35 10 -12 9 -18 -4 -31 -16 -15 -15 -17 1 -30 16 -12 16 -15 3 -24 -13 -8
-13 -12 -1 -32 10 -16 10 -23 2 -26 -15 -5 -14 -39 2 -45 8 -3 6 -9 -7 -19
-18 -14 -18 -15 0 -33 13 -13 15 -20 6 -23 -16 -5 -16 -39 0 -44 9 -3 7 -10
-6 -23 -18 -18 -18 -19 0 -32 16 -12 17 -15 4 -23 -13 -8 -13 -13 -2 -30 11
-18 11 -24 0 -37 -10 -13 -9 -18 7 -29 18 -14 18 -14 -1 -28 -18 -14 -18 -16
-2 -32 16 -16 16 -18 0 -31 -16 -12 -16 -14 2 -28 19 -15 19 -15 1 -29 -16
-12 -17 -16 -6 -30 11 -13 11 -19 0 -32 -11 -13 -10 -17 5 -26 16 -9 16 -11 1
-28 -9 -10 -14 -24 -10 -30 5 -8 13 0 23 20 14 30 14 33 -2 42 -17 9 -16 10 0
23 15 11 16 16 6 28 -11 13 -11 19 0 37 11 17 11 22 -1 30 -12 7 -12 11 -2 24
11 13 11 19 1 31 -10 12 -10 18 0 31 11 12 10 18 -3 31 -15 15 -15 17 1 29 14
10 15 14 2 30 -12 13 -12 18 -2 21 18 7 15 30 -5 42 -17 9 -17 11 2 25 l20 16
-20 16 c-19 14 -19 16 -2 25 9 6 17 16 17 23 0 8 -8 17 -17 21 -17 6 -17 8 2
21 20 15 20 15 1 30 -20 14 -20 14 -1 28 18 13 19 15 3 33 -14 16 -14 20 -1
31 13 12 12 16 -2 32 -14 16 -14 18 0 24 13 5 13 9 3 26 -10 15 -10 22 0 32
16 16 15 43 -3 58 -8 7 -15 8 -15 3z"/>
<path d="M11 5074 c0 -11 3 -14 6 -6 3 7 2 16 -1 19 -3 4 -6 -2 -5 -13z"/>
<path d="M13 4985 c0 -33 2 -45 4 -27 2 18 2 45 0 60 -2 15 -4 0 -4 -33z"/>
<path d="M2170 4998 c-1 -2 -2 -31 -3 -66 l-2 -62 36 0 36 0 2 65 2 65 -36 0
c-19 0 -35 -1 -35 -2z m40 -27 c0 -6 -4 -13 -10 -16 -5 -3 -10 1 -10 9 0 9 5
16 10 16 6 0 10 -4 10 -9z m-3 -78 c-3 -10 -5 -4 -5 12 0 17 2 24 5 18 2 -7 2
-21 0 -30z"/>
<path d="M13 4829 c-1 -23 2 -37 8 -34 11 7 12 45 1 62 -5 7 -8 -4 -9 -28z"/>
<path d="M11 4704 c0 -11 3 -14 6 -6 3 7 2 16 -1 19 -3 4 -6 -2 -5 -13z"/>
<path d="M12 4595 c0 -16 2 -22 5 -12 2 9 2 23 0 30 -3 6 -5 -1 -5 -18z"/>
<path d="M2255 4588 c-35 -19 -40 -19 -50 -4 -7 9 -14 16 -17 16 -2 0 -5 -34
-6 -75 -1 -79 12 -101 23 -37 11 69 84 119 134 92 16 -8 21 -22 23 -53 3 -103
-8 -126 -66 -128 -28 -1 -28 -2 8 -9 53 -10 66 -31 66 -107 0 -50 -4 -67 -20
-83 -27 -27 -100 -28 -123 -2 -18 19 -23 47 -8 38 16 -10 34 23 27 49 -5 18
-13 25 -29 25 -80 0 -53 -115 32 -141 82 -24 191 43 191 119 0 34 -39 87 -71
97 -20 7 -19 8 10 26 36 22 54 61 46 99 -8 35 -49 78 -83 86 -15 3 -32 7 -37
9 -6 1 -28 -6 -50 -17z"/>
<path d="M720 4581 c0 -5 12 -11 28 -13 l27 -3 0 -185 0 -185 -25 -3 c-14 -2
-29 -8 -35 -13 -5 -5 95 -9 255 -9 145 0 260 3 257 6 -4 4 -17 12 -29 19 -18
9 -22 18 -20 44 4 57 18 71 66 71 41 0 43 -2 54 -39 20 -65 16 -81 -18 -81
-16 0 -30 -4 -30 -10 0 -6 38 -10 95 -10 57 0 95 4 95 10 0 6 -11 10 -24 10
-13 0 -28 6 -33 13 -11 14 -103 345 -103 371 0 9 -4 16 -10 16 -5 0 -10 -1
-10 -2 0 -21 -103 -345 -115 -364 -21 -32 -53 -44 -96 -35 l-34 7 0 184 0 185
33 3 c17 2 32 7 32 13 0 5 -75 9 -180 9 -105 0 -180 -4 -180 -9z m231 -28 c2
-18 2 -44 0 -115 l-1 -38 -54 0 c-63 0 -63 -1 -58 101 l4 69 54 0 c44 0 54 -3
55 -17z m329 -225 c0 -5 -18 -8 -40 -8 -22 0 -40 4 -40 9 0 5 10 40 22 77 l21
69 18 -70 c10 -38 19 -73 19 -77z m-330 -42 c0 -66 -4 -95 -12 -98 -14 -5 -88
-1 -94 5 -2 2 -5 45 -6 95 l-3 92 58 0 57 0 0 -94z"/>
<path d="M1450 4580 c0 -5 14 -10 30 -10 l30 0 0 -190 0 -190 -30 0 c-16 0
-30 -4 -30 -10 0 -6 37 -10 90 -10 53 0 90 4 90 10 0 6 -13 10 -30 10 l-30 0
0 96 0 97 36 -6 c20 -3 39 -8 41 -11 3 -2 7 -42 9 -88 5 -98 14 -109 88 -107
28 1 40 4 26 6 -38 7 -50 22 -50 62 0 63 -19 111 -51 130 -23 14 -26 20 -15
24 20 8 38 76 31 119 -3 20 0 41 8 52 13 18 14 17 10 -11 -5 -34 18 -51 37
-28 19 23 8 60 -18 63 -39 6 -50 -13 -54 -93 -2 -41 -8 -79 -14 -85 -6 -6 -27
-12 -47 -14 l-37 -4 0 89 c0 91 1 94 42 90 9 -1 19 3 23 9 4 7 -25 10 -89 10
-57 0 -96 -4 -96 -10z"/>
<path d="M1936 4433 c-62 -209 -73 -233 -108 -240 -53 -11 -28 -23 48 -23 47
0 73 4 69 10 -3 6 -14 10 -25 10 -25 0 -32 24 -19 76 l11 44 49 0 c47 0 48 -1
58 -37 15 -53 14 -83 -4 -84 -28 -3 -33 -4 -41 -11 -4 -5 36 -8 89 -8 58 0 97
4 97 10 0 6 -13 10 -29 10 -34 0 -34 0 -98 253 -21 81 -41 147 -44 147 -3 0
-27 -71 -53 -157z m64 -100 c0 -8 -14 -13 -40 -13 -22 0 -40 3 -40 6 0 4 10
39 21 78 l22 71 18 -65 c10 -36 18 -71 19 -77z"/>
<path d="M2581 4413 c-51 -171 -76 -223 -108 -223 -7 0 -13 -4 -13 -8 0 -5 32
-9 70 -9 39 0 70 4 70 9 0 4 -9 8 -20 8 -40 0 -41 31 -6 154 19 65 36 119 39
122 6 6 41 -123 36 -133 -2 -4 -19 -6 -36 -4 -19 1 -33 -2 -33 -8 0 -6 18 -11
40 -11 37 0 40 -2 49 -37 19 -67 15 -83 -19 -83 -16 0 -30 -3 -30 -8 0 -4 43
-8 95 -8 52 -1 95 2 95 7 0 4 -12 9 -27 11 -20 2 -29 12 -40 43 -13 36 -72
260 -87 328 -4 15 -10 27 -15 27 -4 0 -31 -80 -60 -177z"/>
<path d="M2826 4581 c5 -5 20 -11 34 -13 l25 -3 0 -185 0 -185 -25 -3 c-14 -2
-29 -8 -35 -13 -5 -5 65 -9 178 -9 118 0 187 4 187 10 0 6 -13 10 -29 10 -19
0 -30 6 -33 18 -11 39 -9 332 1 351 6 11 23 22 38 24 16 2 -57 5 -161 6 -115
0 -186 -3 -180 -8z m224 -11 c10 -6 15 -31 16 -89 l1 -81 -58 0 -59 0 0 83 c0
46 3 87 7 90 10 10 76 8 93 -3z m17 -276 c-2 -54 -9 -99 -15 -103 -10 -6 -91
-5 -97 1 -4 4 -7 80 -6 144 l1 50 61 2 60 2 -4 -96z"/>
<path d="M3200 4580 c0 -5 14 -10 30 -10 l30 0 0 -190 0 -190 -30 0 c-16 0
-30 -5 -30 -10 0 -7 34 -10 91 -9 81 1 107 11 54 21 -19 3 -20 12 -23 190 l-2
187 32 10 c27 7 16 9 -59 10 -56 1 -93 -3 -93 -9z"/>
<path d="M3415 4581 l30 -6 0 -190 0 -190 -27 -3 c-16 -2 -28 -7 -28 -11 0 -6
151 -8 250 -3 l36 2 2 83 c3 86 -6 93 -26 21 -7 -23 -22 -53 -33 -68 -18 -23
-28 -27 -63 -24 l-41 3 0 190 0 190 37 3 c54 5 69 -15 104 -137 10 -34 14 3 8
73 l-7 76 -136 -1 c-75 -1 -122 -4 -106 -8z"/>
<path d="M3590 4479 c0 -25 -18 -60 -39 -76 -14 -10 -13 -13 7 -30 12 -10 26
-36 31 -58 7 -33 9 -19 10 73 1 61 -1 112 -4 112 -3 0 -5 -9 -5 -21z"/>
<path d="M453 4416 c15 -12 16 -15 2 -26 -14 -12 -14 -15 -1 -29 14 -13 14
-17 -2 -34 -16 -18 -16 -20 0 -31 16 -12 16 -14 0 -30 -16 -16 -16 -18 2 -28
14 -8 16 -12 5 -19 -7 -4 -10 -11 -6 -15 14 -15 32 15 21 34 -8 12 -8 22 0 35
9 14 7 20 -7 28 -18 10 -18 11 0 24 16 12 16 16 4 36 -10 17 -10 24 -2 27 16
5 13 29 -5 36 -25 10 -30 6 -11 -8z"/>
<path d="M17 4334 c-4 -4 -7 -14 -7 -23 0 -11 3 -12 11 -4 6 6 10 16 7 23 -2
6 -7 8 -11 4z"/>
<path d="M3924 4249 c-18 -20 -18 -21 -1 -34 15 -11 16 -14 2 -25 -14 -12 -14
-15 0 -30 14 -15 14 -18 0 -30 -14 -12 -14 -15 2 -33 13 -15 15 -21 6 -24 -16
-6 -17 -43 -1 -43 6 0 4 -8 -6 -19 -16 -17 -16 -20 0 -35 9 -9 19 -14 22 -11
3 3 1 10 -6 17 -8 8 -7 15 5 26 14 14 14 17 -2 28 -14 10 -14 15 -3 33 11 18
11 23 -1 31 -12 7 -12 11 -2 24 11 13 11 19 1 31 -10 12 -10 18 0 30 10 12 10
18 0 30 -10 12 -10 18 0 30 20 24 5 28 -16 4z"/>
<path d="M454 4175 c17 -13 17 -15 3 -21 -22 -8 -22 -30 1 -39 16 -6 16 -7 -2
-21 -18 -12 -18 -14 -3 -14 25 0 33 29 12 44 -16 12 -16 13 -1 19 20 8 21 33
0 41 -26 10 -30 6 -10 -9z"/>
<path d="M11 4114 c0 -11 3 -14 6 -6 3 7 2 16 -1 19 -3 4 -6 -2 -5 -13z"/>
<path d="M11 4064 c0 -11 3 -14 6 -6 3 7 2 16 -1 19 -3 4 -6 -2 -5 -13z"/>
<path d="M453 4056 c15 -12 16 -15 2 -26 -14 -12 -14 -15 1 -31 15 -17 15 -19
0 -25 -20 -8 -21 -33 -1 -41 14 -5 14 -8 -2 -25 -17 -19 -17 -20 0 -30 14 -8
16 -13 6 -24 -8 -10 -9 -14 0 -14 17 0 26 31 12 40 -10 6 -10 12 0 28 10 16
11 24 2 33 -9 9 -9 16 0 30 9 15 8 21 -7 32 -17 12 -17 14 -2 20 20 8 21 33 0
41 -25 10 -30 6 -11 -8z"/>
<path d="M1867 4039 c6 -6 9 -18 6 -25 -8 -22 11 -16 26 7 11 19 11 21 -3 16
-9 -4 -16 -2 -16 3 0 6 -5 10 -12 10 -9 0 -9 -3 -1 -11z"/>
<path d="M1677 4034 c-3 -3 1 -13 9 -21 8 -9 18 -12 21 -9 4 4 0 13 -8 21 -8
9 -18 13 -22 9z"/>
<path d="M1767 4033 c-15 -14 -6 -33 16 -32 12 0 17 3 10 5 -7 3 -9 12 -6 20
5 14 -8 19 -20 7z"/>
<path d="M10 4019 c0 -5 5 -7 10 -4 6 3 10 8 10 11 0 2 -4 4 -10 4 -5 0 -10
-5 -10 -11z"/>
<path d="M2310 4012 c0 -15 33 -72 42 -72 4 0 4 8 1 18 -9 24 -43 67 -43 54z"/>
<path d="M1836 3985 c-10 -7 -15 -18 -11 -24 10 -16 -11 -13 -29 4 -18 19 -26
19 -26 1 0 -13 -20 -26 -41 -26 -5 0 -9 9 -9 20 0 11 -6 20 -14 20 -22 0 -7
-38 18 -47 11 -4 23 -6 26 -6 3 1 6 -7 6 -18 0 -13 -7 -19 -23 -19 -28 0 -37
-15 -24 -37 6 -10 11 -13 11 -6 0 6 9 9 20 6 15 -4 20 0 20 13 0 15 2 16 9 5
7 -11 11 -10 20 5 8 15 12 16 20 5 10 -15 51 -6 51 12 0 7 5 4 11 -6 6 -9 14
-15 19 -12 5 3 -4 20 -20 37 -16 17 -26 36 -23 42 6 8 13 47 9 46 -1 0 -9 -7
-20 -15z m-17 -79 c-3 -3 -11 5 -18 17 -13 21 -12 21 5 5 10 -10 16 -20 13
-22z m41 5 c0 -5 -7 -14 -15 -21 -16 -14 -18 -10 -9 14 6 17 24 22 24 7z"/>
<path d="M1650 3940 c19 -16 31 -32 26 -37 -5 -4 -11 -2 -13 5 -8 21 -21 13
-19 -13 2 -34 33 -34 42 1 9 36 -11 69 -44 71 l-27 1 35 -28z"/>
<path d="M2290 3949 c0 -5 5 -7 10 -4 6 3 10 8 10 11 0 2 -4 4 -10 4 -5 0 -10
-5 -10 -11z"/>
<path d="M3920 3937 c0 -7 6 -19 12 -25 10 -10 10 -15 -2 -22 -13 -8 -13 -13
-2 -31 11 -18 11 -23 -3 -33 -16 -12 -16 -14 0 -30 17 -16 16 -18 -1 -32 -19
-14 -19 -14 0 -29 17 -13 17 -15 3 -21 -21 -8 -22 -28 -2 -44 13 -11 13 -14
-2 -26 -17 -13 -17 -15 1 -29 20 -15 20 -15 0 -30 -19 -15 -19 -15 0 -30 20
-15 20 -15 0 -30 -18 -14 -18 -16 -2 -28 16 -13 16 -15 0 -30 -15 -16 -15 -18
0 -34 16 -15 16 -17 0 -30 -16 -12 -16 -14 2 -28 20 -15 20 -15 0 -29 -18 -14
-18 -16 -2 -32 16 -16 16 -18 0 -30 -16 -11 -16 -13 1 -32 16 -17 16 -20 2
-25 -20 -8 -19 -33 3 -42 16 -6 16 -7 0 -16 -22 -12 -23 -35 -2 -43 14 -5 14
-8 -1 -23 -16 -16 -16 -17 1 -30 17 -12 17 -14 -2 -28 -19 -15 -19 -15 1 -31
20 -15 20 -15 1 -29 -18 -14 -19 -16 -2 -34 17 -18 17 -20 -1 -30 -17 -11 -17
-11 1 -25 17 -14 18 -16 1 -32 -16 -17 -16 -18 1 -31 18 -14 18 -15 -1 -29
-20 -15 -20 -15 -1 -30 20 -14 20 -14 0 -29 -19 -15 -19 -15 0 -30 20 -15 20
-15 0 -30 -19 -15 -19 -15 1 -31 14 -11 16 -18 8 -21 -7 -3 -13 -13 -13 -23 0
-10 6 -20 13 -23 8 -3 6 -10 -8 -21 -20 -16 -20 -16 -1 -31 20 -15 20 -15 0
-29 -18 -14 -18 -16 -2 -32 16 -16 16 -18 0 -31 -16 -12 -16 -14 2 -28 20 -15
20 -15 0 -29 -18 -14 -18 -16 -2 -32 16 -16 16 -18 0 -31 -16 -12 -16 -14 3
-29 19 -14 19 -16 3 -25 -23 -13 -23 -35 -1 -43 14 -6 14 -8 -3 -21 -15 -11
-17 -16 -6 -26 10 -11 12 -9 12 5 0 11 5 16 13 13 8 -3 14 3 14 15 1 10 -5 22
-13 25 -13 5 -12 8 3 25 17 19 17 20 0 33 -12 8 -14 15 -8 20 15 9 14 42 -1
49 -10 5 -10 7 0 12 6 3 12 14 12 24 0 10 -6 21 -12 24 -10 5 -10 7 0 12 6 3
12 14 12 24 0 10 -6 20 -12 23 -9 3 -7 9 6 19 17 13 17 15 1 31 -15 16 -15 18
0 34 16 16 16 17 0 29 -17 12 -17 14 0 30 16 17 16 18 -1 31 -16 12 -17 15 -4
23 13 8 13 13 2 31 -12 18 -12 23 0 30 11 7 11 12 0 30 -12 18 -12 23 0 30 10
7 10 12 1 27 -9 15 -9 22 0 31 9 9 8 17 -1 32 -11 17 -11 23 0 36 10 13 9 18
-6 29 -17 12 -17 14 -3 20 19 7 23 44 6 44 -8 0 -7 5 2 16 10 12 10 20 2 34
-9 13 -9 20 0 29 9 9 8 17 -1 32 -10 16 -11 24 -1 35 9 11 9 18 1 26 -8 8 -7
16 1 28 8 14 8 22 -2 34 -11 13 -11 19 -1 31 10 12 10 18 0 30 -11 13 -10 18
5 28 16 13 16 14 -1 31 -14 15 -15 19 -3 27 12 7 12 12 0 31 -10 16 -10 23 -2
26 15 5 14 39 -1 46 -10 5 -10 7 0 12 6 3 12 14 12 24 0 10 -6 20 -12 23 -9 3
-7 10 7 21 l20 16 -20 16 c-14 11 -16 18 -7 21 6 3 12 13 12 23 0 10 -6 20
-12 23 -9 3 -7 9 7 20 18 14 19 16 3 34 -14 16 -15 19 -1 32 14 13 14 16 -3
28 -17 13 -17 13 1 27 19 14 19 15 2 34 -18 19 -18 21 0 31 17 11 17 11 -1 25
-10 8 -15 19 -11 25 3 6 1 11 -4 11 -6 0 -11 -6 -11 -13z"/>
<path d="M2412 3891 c2 -7 7 -12 11 -12 12 1 9 15 -3 20 -7 2 -11 -2 -8 -8z"/>
<path d="M10 3875 c0 -8 7 -15 16 -15 14 0 14 3 4 15 -7 8 -14 15 -16 15 -2 0
-4 -7 -4 -15z"/>
<path d="M1915 3880 c-3 -5 -1 -10 4 -10 6 0 11 5 11 10 0 6 -2 10 -4 10 -3 0
-8 -4 -11 -10z"/>
<path d="M1852 3862 c-7 -2 -17 -12 -22 -23 -8 -15 -7 -19 4 -19 8 0 18 10 21
21 4 12 10 17 14 12 8 -14 51 -27 51 -16 0 11 -52 31 -68 25z"/>
<path d="M2490 3860 c0 -5 4 -10 9 -10 6 0 13 5 16 10 3 6 -1 10 -9 10 -9 0
-16 -4 -16 -10z"/>
<path d="M1655 3850 c-3 -5 -1 -10 5 -10 6 0 8 -4 5 -10 -3 -5 1 -10 9 -10 20
0 21 14 2 29 -10 8 -16 9 -21 1z"/>
<path d="M1936 3851 c-4 -5 -2 -12 3 -15 5 -4 12 -2 15 3 4 5 2 12 -3 15 -5 4
-12 2 -15 -3z"/>
<path d="M3105 3850 c-3 -5 -1 -10 4 -10 6 0 11 5 11 10 0 6 -2 10 -4 10 -3 0
-8 -4 -11 -10z"/>
<path d="M21 3822 c-21 -40 2 -122 27 -97 3 3 0 5 -6 5 -9 0 -9 5 0 20 10 16
10 24 1 40 -8 12 -9 21 -3 25 6 3 10 10 10 16 0 16 -19 10 -29 -9z"/>
<path d="M2541 3824 c0 -11 3 -14 6 -6 3 7 2 16 -1 19 -3 4 -6 -2 -5 -13z"/>
<path d="M454 3815 c19 -14 19 -16 2 -28 -16 -12 -16 -14 -2 -26 12 -11 14
-17 5 -27 -7 -9 -7 -14 -1 -14 5 0 15 6 21 14 9 10 8 16 -3 26 -12 9 -13 15
-3 31 10 16 9 21 -3 29 -24 15 -37 11 -16 -5z"/>
<path d="M1610 3809 c0 -5 5 -7 10 -4 6 3 10 8 10 11 0 2 -4 4 -10 4 -5 0 -10
-5 -10 -11z"/>
<path d="M1870 3809 c0 -5 5 -7 10 -4 6 3 10 8 10 11 0 2 -4 4 -10 4 -5 0 -10
-5 -10 -11z"/>
<path d="M2206 3811 c-4 -5 3 -7 14 -4 23 6 26 13 6 13 -8 0 -17 -4 -20 -9z"/>
<path d="M2570 3809 c0 -5 5 -7 10 -4 6 3 10 8 10 11 0 2 -4 4 -10 4 -5 0 -10
-5 -10 -11z"/>
<path d="M2606 3793 c-6 -14 -5 -15 5 -6 7 7 10 15 7 18 -3 3 -9 -2 -12 -12z"/>
<path d="M2717 3799 c7 -7 15 -10 18 -7 3 3 -2 9 -12 12 -14 6 -15 5 -6 -5z"/>
<path d="M1720 3790 c0 -5 5 -10 10 -10 6 0 10 5 10 10 0 6 -4 10 -10 10 -5 0
-10 -4 -10 -10z"/>
<path d="M2039 3787 c7 -7 18 -7 33 0 20 9 20 10 -10 10 -22 0 -29 -4 -23 -10z"/>
<path d="M2475 3790 c-3 -5 1 -10 9 -10 9 0 16 5 16 10 0 6 -4 10 -9 10 -6 0
-13 -4 -16 -10z"/>
<path d="M3076 3781 c-4 -7 -5 -15 -2 -18 9 -9 19 4 14 18 -4 11 -6 11 -12 0z"/>
<path d="M1915 3770 c-3 -5 -1 -10 4 -10 6 0 11 5 11 10 0 6 -2 10 -4 10 -3 0
-8 -4 -11 -10z"/>
<path d="M3157 3756 c-19 -15 -23 -36 -6 -36 5 0 8 4 4 9 -3 6 3 14 12 20 10
5 16 12 13 14 -3 3 -13 0 -23 -7z"/>
<path d="M1991 3746 c-15 -67 2 -166 27 -166 42 0 68 99 39 144 -17 25 -62 40
-66 22z m18 -73 c-1 -44 -3 -52 -8 -33 -8 24 -4 90 5 90 2 0 4 -26 3 -57z m28
-20 c-2 -16 -4 -3 -4 27 0 30 2 43 4 28 2 -16 2 -40 0 -55z"/>
<path d="M2235 3748 c-2 -7 -6 -34 -8 -59 -3 -25 -10 -55 -15 -66 -15 -28 3
-43 51 -43 l39 0 -6 40 c-3 22 -9 58 -12 80 -6 42 -40 75 -49 48z m28 -90 c4
-27 3 -48 -1 -48 -5 0 -9 24 -11 52 -3 63 4 61 12 -4z"/>
<path d="M1878 3678 c-4 -81 3 -98 39 -98 21 0 24 4 19 23 -4 16 1 28 14 40
23 19 25 45 8 82 -9 19 -19 25 -44 25 l-32 0 -4 -72z m32 -3 c0 -36 -3 -65 -7
-65 -5 0 -6 29 -5 65 2 36 6 65 8 65 2 0 4 -29 4 -65z m21 -8 c-13 -13 -14 5
-3 43 l7 25 3 -29 c2 -16 -1 -33 -7 -39z"/>
<path d="M2085 3667 l0 -82 57 0 c32 0 54 4 50 9 -9 16 -10 76 -2 106 11 38
-4 50 -59 50 l-46 0 0 -83z m75 8 c0 -36 -4 -65 -10 -65 -5 0 -8 26 -5 63 5
73 4 67 10 67 3 0 5 -29 5 -65z m-38 12 c1 -20 -1 -39 -5 -43 -4 -4 -7 14 -7
41 0 56 8 57 12 2z"/>
<path d="M2318 3678 c2 -40 5 -78 7 -85 2 -7 21 -10 47 -8 54 3 53 2 38 20 -7
9 -11 38 -8 77 l3 63 -45 3 -46 3 4 -73z m60 -18 c2 -28 -1 -50 -7 -50 -5 0
-10 23 -9 50 0 65 12 65 16 0z m-34 1 c1 -17 -1 -37 -6 -44 -4 -7 -8 9 -8 37
0 53 10 58 14 7z"/>
<path d="M2424 3713 c4 -21 10 -58 14 -83 8 -51 28 -62 67 -36 30 20 32 56 5
81 -13 12 -17 23 -11 34 14 28 1 41 -41 41 l-40 0 6 -37z m43 5 c-3 -8 -6 -5
-6 6 -1 11 2 17 5 13 3 -3 4 -12 1 -19z m0 -85 c-2 -16 -4 -5 -4 22 0 28 2 40
4 28 2 -13 2 -35 0 -50z m26 -14 c-6 -6 -7 3 -4 23 4 28 6 29 9 9 2 -13 0 -27
-5 -32z"/>
<path d="M3190 3743 c0 -6 8 -17 18 -24 16 -13 16 -13 2 6 -8 11 -16 22 -17
24 -2 2 -3 0 -3 -6z"/>
<path d="M3275 3740 c3 -5 10 -10 16 -10 5 0 9 5 9 10 0 6 -7 10 -16 10 -8 0
-12 -4 -9 -10z"/>
<path d="M1770 3727 c0 -21 26 -41 35 -27 4 6 5 12 4 13 -2 2 -12 9 -21 16
-15 11 -18 11 -18 -2z"/>
<path d="M1528 3723 c7 -3 16 -2 19 1 4 3 -2 6 -13 5 -11 0 -14 -3 -6 -6z"/>
<path d="M4071 3714 c0 -11 3 -14 6 -6 3 7 2 16 -1 19 -3 4 -6 -2 -5 -13z"/>
<path d="M28 3703 c7 -3 16 -2 19 1 4 3 -2 6 -13 5 -11 0 -14 -3 -6 -6z"/>
<path d="M452 3696 c16 -12 16 -14 0 -30 -16 -16 -16 -18 -1 -29 15 -11 15
-15 3 -32 -13 -17 -13 -21 3 -32 16 -12 16 -14 -1 -26 -17 -12 -17 -15 -2 -30
10 -9 12 -18 6 -22 -14 -9 -12 -42 3 -48 8 -3 6 -10 -8 -21 -19 -15 -19 -16
-2 -27 17 -10 17 -12 2 -29 -14 -16 -15 -20 -2 -32 13 -11 13 -15 1 -29 -13
-14 -12 -18 1 -29 14 -12 14 -15 0 -30 -15 -16 -14 -19 1 -34 15 -16 15 -18
-2 -32 -18 -13 -18 -15 -3 -27 15 -11 15 -15 3 -32 -13 -17 -13 -21 3 -34 13
-9 14 -15 6 -18 -16 -6 -17 -43 -1 -43 6 0 3 -9 -8 -21 -18 -19 -18 -22 -2
-33 13 -10 15 -15 5 -25 -9 -9 -9 -16 2 -33 11 -17 11 -22 -1 -29 -10 -7 -9
-9 4 -9 26 0 33 21 13 37 -18 13 -18 13 1 28 19 15 19 15 0 29 -17 14 -18 16
-1 32 16 17 16 18 -1 31 -17 12 -17 14 2 28 19 15 19 15 0 30 -18 14 -18 16
-3 33 15 17 15 19 0 35 -11 11 -13 17 -5 17 16 0 16 37 0 42 -9 3 -8 10 5 22
16 16 16 20 3 35 -12 14 -12 18 2 30 14 13 13 16 -7 29 -20 14 -20 15 -4 28
14 10 16 17 7 31 -9 14 -8 21 5 30 15 12 14 14 -3 28 -19 14 -19 16 -2 28 17
13 17 14 1 31 -17 16 -16 18 1 32 18 13 18 14 1 28 -16 12 -16 17 -5 35 9 16
10 23 1 32 -9 9 -8 15 4 27 14 14 13 17 -3 29 -23 17 -44 16 -22 -1z"/>
<path d="M3296 3702 c-3 -5 1 -9 9 -9 8 0 15 4 15 9 0 4 -4 8 -9 8 -6 0 -12
-4 -15 -8z"/>
<path d="M3805 3691 c-3 -5 -1 -12 5 -16 5 -3 10 1 10 9 0 18 -6 21 -15 7z"/>
<path d="M3220 3680 c-8 -5 -11 -12 -7 -17 5 -4 12 -1 16 6 5 8 14 10 21 6 9
-5 11 -4 6 3 -9 14 -16 15 -36 2z"/>
<path d="M3396 3677 c3 -10 9 -15 12 -12 3 3 0 11 -7 18 -10 9 -11 8 -5 -6z"/>
<path d="M11 3610 c1 -38 5 -70 10 -70 12 0 15 41 7 83 -5 21 -6 42 -3 48 4 5
1 9 -5 9 -6 0 -10 -26 -9 -70z"/>
<path d="M3301 3664 c0 -11 3 -14 6 -6 3 7 2 16 -1 19 -3 4 -6 -2 -5 -13z"/>
<path d="M45 3660 c-3 -5 -1 -10 4 -10 6 0 11 5 11 10 0 6 -2 10 -4 10 -3 0
-8 -4 -11 -10z"/>
<path d="M3427 3656 c-4 -10 -1 -13 9 -9 15 6 19 23 5 23 -5 0 -11 -7 -14 -14z"/>
<path d="M3880 3661 c0 -6 4 -13 10 -16 6 -3 7 1 4 9 -7 18 -14 21 -14 7z"/>
<path d="M3635 3650 c3 -5 8 -10 11 -10 2 0 4 5 4 10 0 6 -5 10 -11 10 -5 0
-7 -4 -4 -10z"/>
<path d="M3214 3641 c-9 -10 -3 -32 7 -25 6 3 15 0 20 -7 6 -10 9 -7 10 11 l1
25 8 -25 8 -25 1 27 c1 24 -3 27 -25 26 -14 -2 -27 -4 -30 -7z"/>
<path d="M3436 3628 c-13 -41 -14 -59 -3 -55 7 2 12 18 12 35 0 34 -3 40 -9
20z"/>
<path d="M3485 3630 c3 -5 8 -10 11 -10 2 0 4 5 4 10 0 6 -5 10 -11 10 -5 0
-7 -4 -4 -10z"/>
<path d="M46 3605 c4 -8 8 -15 10 -15 2 0 4 7 4 15 0 8 -4 15 -10 15 -5 0 -7
-7 -4 -15z"/>
<path d="M3466 3605 c-3 -8 -1 -15 4 -15 6 0 10 7 10 15 0 8 -2 15 -4 15 -2 0
-6 -7 -10 -15z"/>
<path d="M40 3540 c0 -5 5 -10 10 -10 6 0 10 5 10 10 0 6 -4 10 -10 10 -5 0
-10 -4 -10 -10z"/>
<path d="M17 3523 c-11 -11 -8 -31 6 -36 10 -4 13 2 9 19 -5 26 -6 27 -15 17z"/>
<path d="M3481 3464 c0 -11 3 -14 6 -6 3 7 2 16 -1 19 -3 4 -6 -2 -5 -13z"/>
<path d="M11 3444 c0 -11 3 -14 6 -6 3 7 2 16 -1 19 -3 4 -6 -2 -5 -13z"/>
<path d="M2379 3320 c-1 -3 -2 -20 -3 -37 -2 -26 2 -33 16 -33 10 0 18 4 18 9
0 11 -29 68 -31 61z"/>
<path d="M2523 3313 c-7 -3 -13 -18 -13 -34 0 -21 5 -29 18 -29 12 0 17 8 16
30 -1 34 -4 39 -21 33z m4 -45 c-3 -7 -5 -2 -5 12 0 14 2 19 5 13 2 -7 2 -19
0 -25z"/>
<path d="M2561 3288 c-1 -32 2 -38 19 -38 16 0 20 7 20 30 0 28 -19 44 -21 18
0 -7 -4 -4 -9 7 -7 16 -9 13 -9 -17z"/>
<path d="M2634 3314 c-6 -3 -9 -16 -6 -31 3 -18 1 -24 -7 -19 -6 4 -11 2 -11
-3 0 -6 9 -11 20 -11 16 0 20 7 20 35 0 19 -1 35 -2 34 -2 0 -8 -3 -14 -5z"/>
<path d="M2723 3313 c-15 -5 -18 -63 -4 -63 5 0 11 15 14 33 5 37 6 36 -10 30z"/>
<path d="M2761 3301 c-11 -19 -10 -26 3 -39 14 -14 16 -14 22 2 4 9 2 27 -3
39 l-10 22 -12 -24z m16 -33 c-3 -7 -5 -2 -5 12 0 14 2 19 5 13 2 -7 2 -19 0
-25z"/>
<path d="M2803 3283 c3 -41 37 -49 37 -8 0 14 5 25 10 25 6 0 10 -11 10 -25 0
-15 6 -25 14 -25 19 0 33 23 18 28 -7 2 -12 10 -12 18 0 8 -8 14 -17 15 -10 0
-28 2 -40 3 -20 2 -22 -2 -20 -31z"/>
<path d="M1508 3276 c3 -25 8 -33 18 -29 8 3 14 9 14 15 0 5 -6 6 -12 2 -9 -6
-9 -3 0 9 15 17 9 37 -12 37 -8 0 -11 -12 -8 -34z"/>
<path d="M1550 3299 c0 -5 5 -7 10 -4 6 4 10 -7 10 -24 0 -33 16 -42 27 -15 3
9 0 20 -7 24 -7 4 -9 13 -6 19 5 7 -1 11 -13 11 -12 0 -21 -5 -21 -11z"/>
<path d="M1660 3277 c0 -26 4 -33 20 -34 16 -1 20 5 21 30 l2 32 7 -35 7 -35
2 38 c1 35 -1 37 -29 37 -27 0 -30 -3 -30 -33z"/>
<path d="M1730 3275 c0 -22 5 -35 13 -35 9 0 14 13 14 35 0 23 -5 35 -14 35
-8 0 -13 -12 -13 -35z"/>
<path d="M1777 3303 c-12 -11 -8 -40 8 -53 12 -10 15 -10 15 2 0 8 -5 19 -12
26 -9 9 -9 12 0 12 7 0 12 5 12 10 0 11 -13 13 -23 3z"/>
<path d="M1816 3283 c10 -44 21 -48 26 -9 3 30 1 36 -14 36 -15 0 -17 -5 -12
-27z"/>
<path d="M1860 3283 c0 -26 4 -33 19 -33 15 0 19 7 19 30 -1 28 -18 45 -18 18
0 -9 -4 -8 -10 2 -7 11 -10 7 -10 -17z"/>
<path d="M1950 3295 c0 -7 6 -18 14 -22 7 -4 16 -15 19 -23 3 -8 5 3 6 25 0
31 -2 36 -9 20 -7 -17 -9 -17 -9 -2 -1 20 -21 23 -21 2z"/>
<path d="M2010 3296 c0 -20 11 -46 19 -46 4 0 6 14 3 30 -4 30 -22 43 -22 16z"/>
<path d="M2056 3303 c-12 -13 -6 -53 9 -53 8 0 15 5 15 11 0 5 -4 7 -10 4 -5
-3 -10 0 -10 9 0 8 5 16 12 18 8 3 9 6 1 11 -5 4 -13 4 -17 0z"/>
<path d="M2094 3294 c3 -9 6 -22 6 -30 0 -27 15 -14 17 16 2 21 -2 30 -13 30
-11 0 -14 -6 -10 -16z"/>
<path d="M2140 3296 c0 -8 -3 -21 -6 -30 -4 -12 0 -16 15 -16 17 0 21 6 21 30
0 20 -5 30 -15 30 -8 0 -15 -6 -15 -14z"/>
<path d="M2184 3282 c1 -16 6 -29 13 -29 7 0 11 12 10 29 -3 37 -24 37 -23 0z"/>
<path d="M2228 3280 c3 -21 10 -30 23 -30 11 0 19 7 19 15 0 8 -4 15 -10 15
-5 0 -10 7 -10 15 0 8 -6 15 -13 15 -9 0 -12 -10 -9 -30z"/>
<path d="M2324 3295 c-4 -8 -4 -22 0 -30 6 -17 36 -21 36 -4 0 5 -5 7 -11 3
-8 -5 -10 1 -7 20 6 28 -9 36 -18 11z"/>
<path d="M2477 3290 c3 -13 0 -20 -8 -20 -10 0 -10 -3 -1 -12 17 -17 36 4 27
31 -8 27 -25 28 -18 1z"/>
<path d="M2662 3283 c4 -36 33 -39 33 -3 0 16 -6 26 -18 28 -15 3 -18 -2 -15
-25z m15 -15 c-3 -7 -5 -2 -5 12 0 14 2 19 5 13 2 -7 2 -19 0 -25z"/>
<path d="M15 3290 c-3 -5 -1 -10 4 -10 6 0 11 5 11 10 0 6 -2 10 -4 10 -3 0
-8 -4 -11 -10z"/>
<path d="M11 3224 c0 -11 3 -14 6 -6 3 7 2 16 -1 19 -3 4 -6 -2 -5 -13z"/>
<path d="M12 3110 c0 -14 2 -19 5 -12 2 6 2 18 0 25 -3 6 -5 1 -5 -13z"/>
<path d="M12 2960 c0 -14 2 -19 5 -12 2 6 2 18 0 25 -3 6 -5 1 -5 -13z"/>
<path d="M1812 2968 c-29 -37 -25 -90 8 -108 15 -8 23 -5 40 12 26 28 26 58 0
86 -24 25 -33 27 -48 10z m25 -85 c-2 -16 -4 -3 -4 27 0 30 2 43 4 28 2 -16 2
-40 0 -55z"/>
<path d="M1966 2968 c-39 -22 -43 -83 -7 -105 16 -10 17 -7 13 43 -5 55 7 71
27 37 9 -16 10 -15 11 8 0 27 -16 33 -44 17z"/>
<path d="M2226 2958 c-19 -27 -20 -58 -3 -82 34 -46 86 20 57 71 -20 35 -35
38 -54 11z m34 -43 c0 -25 -4 -45 -8 -45 -5 0 -10 20 -10 45 -1 25 2 45 8 45
5 0 10 -20 10 -45z"/>
<path d="M2639 2956 c-24 -25 -24 -48 -1 -76 18 -22 18 -22 14 19 -2 23 -1 49
3 59 6 16 7 16 21 -2 14 -20 14 -20 14 0 0 27 -27 27 -51 0z"/>
<path d="M2807 2966 c-6 -15 1 -26 15 -26 11 0 10 27 -1 34 -5 3 -11 0 -14 -8z"/>
<path d="M2925 2961 c-3 -12 -3 -31 0 -42 5 -13 3 -19 -3 -15 -5 3 -12 -5 -14
-19 -3 -14 -1 -25 3 -25 5 0 9 7 9 15 0 8 5 15 10 15 6 0 10 -7 10 -15 0 -8 9
-15 20 -15 24 0 24 -5 4 56 -21 61 -30 72 -39 45z"/>
<path d="M3053 2973 c-8 -3 -13 -24 -13 -59 0 -46 3 -54 19 -54 16 0 18 6 14
53 -6 65 -5 65 -20 60z"/>
<path d="M3080 2972 c0 -5 7 -17 15 -28 15 -19 20 -8 9 20 -6 17 -24 22 -24 8z"/>
<path d="M3176 2958 c-9 -12 -16 -29 -16 -38 0 -22 29 -60 45 -60 18 0 44 50
37 70 -6 19 -33 50 -43 50 -4 0 -15 -10 -23 -22z m33 -40 l-1 -53 -10 38 c-6
20 -7 44 -4 52 10 28 16 15 15 -37z"/>
<path d="M1200 2951 c-15 -29 -12 -56 9 -82 19 -23 19 -24 40 -5 35 32 22 106
-19 106 -11 0 -24 -9 -30 -19z m40 -18 c0 -19 -13 -9 -16 12 -1 8 2 13 7 9 5
-3 9 -12 9 -21z m-3 -65 c-3 -7 -5 -2 -5 12 0 14 2 19 5 13 2 -7 2 -19 0 -25z"/>
<path d="M1400 2968 c0 -2 4 -18 9 -36 6 -20 6 -30 0 -27 -5 4 -9 -1 -9 -10 0
-9 5 -13 10 -10 6 3 14 -4 19 -17 9 -24 14 -18 24 27 3 15 5 13 6 -7 1 -21 6
-28 20 -28 17 0 20 7 19 55 -1 50 -4 55 -23 55 -18 0 -22 -5 -19 -27 4 -27 3
-27 -4 -3 -5 15 -17 26 -30 28 -12 2 -22 2 -22 0z"/>
<path d="M1675 2924 c-4 -26 -12 -55 -18 -65 -6 -10 -8 -21 -4 -25 11 -11 19
2 27 43 l8 38 1 -33 c1 -22 5 -31 13 -26 6 4 18 -2 25 -12 14 -17 14 -15 8 22
-3 23 -7 55 -7 73 -1 25 -5 31 -23 31 -19 0 -24 -7 -30 -46z"/>
<path d="M2071 2943 c0 -25 1 -26 9 -8 6 15 9 8 9 -27 1 -43 3 -48 24 -48 20
0 22 4 20 48 -2 35 -1 42 6 27 9 -18 10 -17 10 8 1 25 -2 27 -39 27 -37 0 -40
-2 -39 -27z"/>
<path d="M2350 2914 l0 -55 38 3 c27 2 36 7 32 18 -2 8 -4 32 -3 53 0 20 -4
37 -9 37 -6 0 -8 -6 -5 -14 3 -8 0 -19 -7 -25 -10 -9 -13 -6 -11 14 3 19 -1
25 -16 25 -16 0 -19 -8 -19 -56z m52 -36 c-9 -9 -12 -7 -12 12 0 19 3 21 12
12 9 -9 9 -15 0 -24z"/>
<path d="M2485 2948 c1 -13 3 -38 4 -56 1 -31 3 -33 34 -30 31 3 32 4 32 53
l0 50 -36 3 c-33 3 -36 1 -34 -20z m42 -20 c-3 -7 -5 -2 -5 12 0 14 2 19 5 13
2 -7 2 -19 0 -25z m0 -50 c-3 -7 -5 -2 -5 12 0 14 2 19 5 13 2 -7 2 -19 0 -25z"/>
<path d="M2760 2915 c0 -46 3 -55 18 -55 14 0 17 8 14 55 -3 39 -8 55 -18 55
-10 0 -14 -14 -14 -55z"/>
<path d="M2806 2893 c9 -35 10 -37 28 -30 12 5 13 10 3 31 -17 36 -39 34 -31
-1z"/>
<path d="M2000 2903 c0 -6 -3 -18 -6 -27 -3 -9 -1 -16 5 -16 17 0 25 30 12 43
-8 8 -11 8 -11 0z"/>
<path d="M2682 2885 c-10 -21 -9 -25 3 -25 9 0 15 10 15 25 0 14 -2 25 -3 25
-2 0 -9 -11 -15 -25z"/>
<path d="M1282 2883 c2 -10 10 -18 18 -18 8 0 16 8 18 18 2 12 -3 17 -18 17
-15 0 -20 -5 -18 -17z"/>
<path d="M1514 2889 c-8 -14 11 -33 25 -25 6 4 11 14 11 22 0 16 -26 19 -36 3z"/>
<path d="M13 2845 c0 -22 2 -30 4 -17 2 12 2 30 0 40 -3 9 -5 -1 -4 -23z"/>
<path d="M450 2860 c0 -6 5 -10 12 -10 6 0 4 -8 -6 -19 -15 -17 -15 -21 -3
-33 13 -11 13 -15 -1 -31 -16 -18 -15 -20 3 -33 19 -14 19 -14 -1 -29 -18 -14
-18 -16 -2 -28 16 -13 16 -15 0 -31 -16 -16 -16 -18 0 -30 16 -12 16 -14 0
-30 -16 -16 -16 -18 2 -32 11 -8 14 -14 8 -14 -7 0 -12 -4 -12 -10 0 -16 20
-12 27 6 3 9 0 19 -6 24 -10 6 -10 12 1 29 11 19 11 23 -5 33 -18 9 -18 11 4
26 20 14 21 16 5 28 -15 10 -15 15 -4 33 11 18 11 23 -2 32 -11 8 -12 12 -2
16 15 6 16 35 1 50 -8 8 -8 13 0 17 16 10 13 33 -4 40 -8 3 -15 1 -15 -4z"/>
<path d="M1400 2860 c0 -5 5 -10 10 -10 6 0 10 5 10 10 0 6 -4 10 -10 10 -5 0
-10 -4 -10 -10z"/>
<path d="M11 2634 c0 -11 3 -14 6 -6 3 7 2 16 -1 19 -3 4 -6 -2 -5 -13z"/>
<path d="M11 2584 c0 -11 3 -14 6 -6 3 7 2 16 -1 19 -3 4 -6 -2 -5 -13z"/>
<path d="M2002 2573 c59 -2 158 -2 220 0 62 1 14 3 -107 3 -121 0 -172 -2
-113 -3z"/>
<path d="M2373 2573 c20 -2 54 -2 75 0 20 2 3 4 -38 4 -41 0 -58 -2 -37 -4z"/>
<path d="M454 2495 c17 -13 17 -15 3 -21 -21 -8 -22 -33 -2 -41 14 -5 14 -8
-2 -25 -17 -19 -17 -21 -1 -32 16 -12 16 -14 0 -30 -16 -16 -16 -18 1 -31 18
-13 18 -14 0 -24 -16 -9 -16 -13 -5 -32 12 -18 12 -23 0 -30 -11 -7 -11 -12 0
-30 12 -18 12 -23 0 -30 -10 -7 -9 -9 5 -9 23 0 34 29 16 42 -11 7 -11 11 -1
15 18 7 15 40 -5 48 -17 6 -17 7 0 16 20 12 23 35 5 43 -10 5 -10 7 0 12 18 8
15 41 -5 48 -14 6 -14 8 3 21 15 11 17 17 8 32 -8 13 -8 23 0 36 8 14 8 20 -4
27 -24 15 -37 11 -16 -5z"/>
<path d="M1475 2410 l0 -50 35 0 35 0 -3 50 c-4 49 -5 50 -36 50 -31 0 -31 -1
-31 -50z"/>
<path d="M1557 2454 c-7 -8 11 -46 27 -56 6 -4 7 -10 3 -15 -5 -4 -12 -1 -17
7 -11 18 -24 6 -16 -15 3 -10 15 -15 28 -13 19 2 23 10 24 38 2 47 -26 77 -49
54z m33 -24 c0 -5 -4 -10 -10 -10 -5 0 -10 5 -10 10 0 6 5 10 10 10 6 0 10 -4
10 -10z"/>
<path d="M1640 2439 c0 -12 -5 -37 -12 -56 -12 -34 -4 -58 12 -33 8 12 13 13
29 3 18 -12 19 -9 16 45 -3 49 -7 57 -24 60 -16 3 -21 -2 -21 -19z"/>
<path d="M1722 2428 c-6 -18 -13 -41 -17 -50 -5 -13 -2 -18 8 -18 9 0 18 8 20
18 4 16 5 16 6 0 1 -16 13 -18 112 -18 111 0 111 0 105 23 -3 12 -6 34 -6 48
l0 27 -85 0 c-75 0 -86 -2 -84 -16 7 -74 -14 -92 -26 -22 -8 48 -21 51 -33 8z
m138 -19 c0 -24 -4 -38 -10 -34 -17 10 -11 75 7 75 2 0 3 -18 3 -41z m-40 21
c0 -5 -4 -10 -10 -10 -5 0 -10 5 -10 10 0 6 5 10 10 10 6 0 10 -4 10 -10z m80
-20 c0 -16 -4 -30 -10 -30 -5 0 -10 14 -10 30 0 17 5 30 10 30 6 0 10 -13 10
-30z m40 26 c0 -3 -4 -8 -10 -11 -5 -3 -10 -1 -10 4 0 6 5 11 10 11 6 0 10 -2
10 -4z m-120 -46 c0 -5 -5 -10 -11 -10 -5 0 -7 5 -4 10 3 6 8 10 11 10 2 0 4
-4 4 -10z m115 0 c3 -5 1 -10 -4 -10 -6 0 -11 5 -11 10 0 6 2 10 4 10 3 0 8
-4 11 -10z"/>
<path d="M2025 2410 l0 -51 33 3 c18 2 32 6 32 11 0 4 0 25 0 47 0 38 -1 40
-32 40 -33 0 -33 0 -33 -50z m45 -20 c0 -5 -5 -10 -11 -10 -5 0 -7 5 -4 10 3
6 8 10 11 10 2 0 4 -4 4 -10z"/>
<path d="M2112 2448 c-7 -7 -12 -24 -12 -38 0 -30 17 -50 42 -50 11 0 18 7 18
20 0 11 -4 20 -10 20 -5 0 -10 -5 -10 -11 0 -5 -4 -7 -10 -4 -5 3 -10 17 -10
31 0 13 5 24 10 24 6 0 10 -4 10 -10 0 -5 5 -10 10 -10 6 0 10 9 10 20 0 23
-29 27 -48 8z"/>
<path d="M2170 2410 l0 -50 56 0 c48 0 55 2 50 16 -4 11 1 22 14 31 24 17 26
39 4 47 -9 3 -40 6 -70 6 l-54 0 0 -50z m40 0 c0 -16 -4 -30 -9 -30 -5 0 -8 8
-6 18 2 9 4 23 4 30 2 26 11 11 11 -18z m40 0 c0 -16 -4 -30 -10 -30 -5 0 -10
14 -10 30 0 17 5 30 10 30 6 0 10 -13 10 -30z m40 20 c0 -5 -4 -10 -10 -10 -5
0 -10 5 -10 10 0 6 5 10 10 10 6 0 10 -4 10 -10z"/>
<path d="M2331 2423 c-7 -21 -15 -44 -17 -50 -3 -7 1 -13 9 -13 9 0 18 8 20
18 4 16 5 16 6 -1 1 -15 9 -18 49 -15 l47 3 0 45 c0 42 -2 45 -27 48 -27 3
-28 1 -28 -38 0 -49 -16 -45 -26 5 -8 45 -18 44 -33 -2z m99 7 c0 -5 -4 -10
-10 -10 -5 0 -10 5 -10 10 0 6 5 10 10 10 6 0 10 -4 10 -10z m0 -36 c0 -8 -4
-12 -10 -9 -5 3 -10 10 -10 16 0 5 5 9 10 9 6 0 10 -7 10 -16z"/>
<path d="M2494 2428 c-5 -18 -15 -32 -22 -30 -6 1 -12 -7 -12 -18 0 -26 15
-25 35 3 l17 22 -7 -22 -6 -23 128 0 128 0 0 49 0 50 -73 0 -73 0 2 -27 c1
-15 1 -36 0 -47 l-2 -20 -9 20 c-4 11 -5 32 -3 48 5 26 5 27 -44 27 -47 0 -49
-2 -59 -32z m56 -17 c0 -17 -4 -33 -10 -36 -6 -4 -10 8 -10 29 0 20 5 36 10
36 6 0 10 -13 10 -29z m100 19 c0 -5 -5 -10 -11 -10 -5 0 -7 5 -4 10 3 6 8 10
11 10 2 0 4 -4 4 -10z m40 -20 c0 -16 -4 -30 -10 -30 -11 0 -14 43 -3 53 11
12 13 8 13 -23z m40 15 c0 -8 -4 -15 -10 -15 -5 0 -10 7 -10 15 0 8 5 15 10
15 6 0 10 -7 10 -15z m0 -35 c0 -5 -4 -10 -10 -10 -5 0 -10 5 -10 10 0 6 5 10
10 10 6 0 10 -4 10 -10z"/>
<path d="M2772 2435 c-15 -33 0 -75 28 -75 29 0 47 42 32 75 -15 32 -46 32
-60 0z m43 -25 c0 -13 -6 -25 -12 -27 -9 -3 -13 6 -13 27 0 21 4 30 13 28 6
-3 12 -15 12 -28z"/>
<path d="M2849 2458 c0 -2 -1 -24 -2 -51 -2 -47 -2 -47 30 -47 32 0 32 0 29
48 -2 43 -5 47 -29 50 -15 2 -27 2 -28 0z m41 -28 c0 -5 -4 -10 -10 -10 -5 0
-10 5 -10 10 0 6 5 10 10 10 6 0 10 -4 10 -10z m-5 -40 c3 -5 1 -10 -4 -10 -6
0 -11 5 -11 10 0 6 2 10 4 10 3 0 8 -4 11 -10z"/>
<path d="M11 2404 c0 -11 3 -14 6 -6 3 7 2 16 -1 19 -3 4 -6 -2 -5 -13z"/>
<path d="M13 2295 c0 -22 2 -30 4 -17 2 12 2 30 0 40 -3 9 -5 -1 -4 -23z"/>
<path d="M1963 2223 c9 -2 23 -2 30 0 6 3 -1 5 -18 5 -16 0 -22 -2 -12 -5z"/>
<path d="M2040 2222 c14 -4 99 -5 190 -2 l165 6 -190 1 c-104 1 -179 -2 -165
-5z"/>
<path d="M2458 2223 c7 -3 16 -2 19 1 4 3 -2 6 -13 5 -11 0 -14 -3 -6 -6z"/>
<path d="M3941 2172 c0 -7 -8 -20 -17 -29 -14 -14 -14 -17 0 -31 14 -14 13
-17 -2 -28 -16 -11 -16 -13 1 -32 16 -17 16 -20 2 -25 -20 -8 -19 -33 2 -41
14 -6 14 -8 -3 -21 -18 -13 -18 -15 -2 -31 16 -16 16 -18 0 -30 -16 -12 -16
-14 0 -30 16 -16 16 -18 0 -30 -16 -11 -16 -13 1 -32 16 -17 16 -20 2 -25 -18
-8 -20 -34 -2 -40 9 -3 9 -8 -3 -21 -13 -16 -12 -20 5 -32 19 -14 19 -14 0
-28 -16 -11 -17 -16 -7 -29 11 -13 11 -19 0 -36 -11 -18 -10 -22 6 -34 17 -12
17 -14 2 -20 -19 -8 -21 -33 -3 -41 10 -5 10 -7 0 -12 -19 -8 -16 -41 5 -49
16 -6 16 -7 0 -16 -20 -11 -24 -35 -7 -41 8 -3 8 -10 -2 -26 -12 -19 -11 -23
5 -35 17 -12 17 -14 2 -20 -18 -7 -22 -33 -5 -39 8 -3 8 -10 -2 -26 -10 -16
-11 -24 -2 -33 9 -9 9 -16 0 -29 -8 -14 -8 -22 2 -34 9 -11 10 -16 2 -16 -14
0 -14 -37 0 -42 8 -3 8 -10 -2 -25 -11 -19 -11 -25 4 -41 16 -17 16 -20 -3
-40 l-21 -22 21 -17 c27 -24 25 -35 -10 -55 -18 -10 -30 -25 -30 -37 0 -11
-10 -27 -21 -35 -14 -9 -19 -21 -15 -31 3 -9 -1 -18 -10 -22 -8 -3 -13 -12
-10 -20 4 -9 1 -13 -6 -10 -7 2 -12 14 -11 26 2 11 -2 21 -7 21 -6 0 -10 -11
-10 -23 0 -34 32 -59 69 -55 16 2 30 0 31 -4 2 -34 -4 -45 -27 -55 -30 -15
-54 -17 -51 -5 4 17 -27 62 -43 62 -25 0 -33 18 -17 37 11 14 11 16 -2 11 -34
-11 -14 -110 21 -101 35 10 29 -19 -15 -64 -25 -25 -43 -50 -40 -54 3 -5 -3
-6 -12 -2 -14 5 -16 2 -12 -21 7 -33 -13 -46 -59 -39 -35 6 -45 -11 -21 -35 9
-9 9 -15 0 -24 -16 -16 -15 -29 2 -22 14 5 86 -31 98 -50 4 -6 6 -17 3 -24 -3
-8 3 -10 18 -7 15 4 29 0 39 -12 17 -19 18 -30 4 -70 -11 -34 -30 -28 -23 7 5
23 2 32 -14 41 -12 6 -29 9 -39 6 -22 -6 -29 9 -24 49 2 16 1 23 -2 17 -4 -10
-15 -8 -44 7 -40 20 -86 27 -76 11 3 -5 -6 -12 -20 -15 -14 -4 -41 -24 -60
-44 -33 -35 -35 -36 -49 -18 -8 10 -12 22 -10 26 8 12 -53 33 -72 25 -16 -6
-16 -8 5 -16 12 -4 22 -14 22 -22 0 -13 53 -37 83 -37 11 0 19 -13 24 -37 4
-21 6 -41 5 -44 -3 -12 70 -21 81 -10 8 8 7 11 -2 11 -16 0 -91 75 -91 91 0
23 62 69 92 69 25 0 28 -3 19 -14 -7 -8 -23 -17 -36 -20 -15 -4 -27 -16 -31
-31 -8 -31 3 -48 27 -42 18 5 43 -14 34 -26 -3 -4 -2 -5 2 -2 4 3 13 -5 20
-17 11 -19 13 -20 11 -4 -2 10 3 21 10 23 6 3 12 0 12 -7 0 -6 9 -20 20 -32
15 -16 22 -18 33 -10 15 13 27 6 27 -14 0 -16 -31 -27 -44 -14 -19 19 -29 10
-11 -10 34 -37 70 -21 77 34 1 16 9 31 16 34 7 2 10 -2 6 -12 -3 -9 -3 -28 0
-42 6 -21 11 -25 39 -22 24 2 33 8 35 24 4 27 -24 52 -40 36 -9 -9 -9 -12 2
-12 11 0 11 -3 2 -12 -9 -9 -15 -9 -24 0 -9 9 -7 21 8 54 l20 41 25 -48 c28
-57 60 -83 112 -92 37 -6 37 -5 37 28 0 51 -32 94 -89 120 l-50 23 31 13 c37
16 68 17 68 2 0 -6 -7 -9 -15 -5 -10 3 -15 -1 -15 -14 0 -25 15 -33 46 -26 20
5 25 12 22 34 -5 42 -46 51 -102 23 -36 -17 -50 -20 -65 -11 -29 15 -43 44
-29 58 9 9 7 12 -8 12 -45 0 -88 73 -65 110 8 12 12 9 20 -12 5 -14 15 -29 21
-33 8 -5 8 -10 0 -20 -9 -11 -3 -12 32 -7 36 4 41 3 32 -9 -6 -8 -8 -25 -4
-39 5 -21 12 -25 48 -26 23 -1 42 2 42 7 0 4 17 9 38 11 34 3 37 6 37 32 0 17
-6 31 -15 34 -12 4 -13 3 -2 -10 15 -19 6 -48 -15 -48 -11 0 -13 7 -9 26 5 19
2 30 -11 40 -22 16 -80 18 -85 3 -2 -7 -13 -9 -27 -4 -26 8 -24 41 3 38 14 -1
15 2 7 10 -15 15 -47 -4 -45 -27 2 -22 -13 -20 -26 3 -8 16 -5 22 19 34 20 10
34 11 46 5 11 -7 21 -6 27 0 8 8 17 8 30 1 16 -9 17 -13 6 -27 -11 -15 -10
-15 8 0 11 10 27 18 36 18 24 0 58 44 58 76 0 35 -31 68 -74 78 -37 9 -30 14
22 17 48 3 61 13 37 27 -15 8 -15 10 -1 21 35 29 9 131 -33 131 -23 0 -35 39
-16 46 17 7 37 -4 30 -16 -3 -5 -1 -11 4 -15 16 -9 31 28 20 48 -6 9 -7 22 -4
28 4 6 -1 19 -11 30 -16 18 -16 20 -1 37 21 23 21 31 1 54 -14 14 -14 20 -4
33 10 12 10 18 -1 32 -11 13 -11 17 -1 20 17 6 15 30 -4 41 -14 8 -14 10 0 21
21 18 20 41 -1 41 -14 0 -14 2 3 21 18 20 18 21 1 34 -18 13 -18 14 0 24 16 9
16 12 4 32 -10 17 -10 24 -2 27 17 6 13 30 -6 41 -17 9 -17 10 0 16 20 8 23
41 5 48 -10 4 -9 8 2 16 13 9 13 13 1 33 -10 16 -10 23 -2 26 15 5 14 39 -1
45 -10 4 -9 8 2 16 13 9 13 14 2 32 -12 18 -12 23 0 30 11 7 11 12 0 30 -12
18 -12 23 0 30 11 7 11 12 0 30 -12 18 -12 23 0 30 11 7 11 12 0 29 -10 17
-10 25 -1 36 9 11 8 18 -2 31 -11 13 -11 17 -1 20 14 5 16 33 2 33 -14 0 -12
27 3 33 9 3 9 9 0 25 -8 13 -9 23 -3 27 14 9 12 42 -2 48 -9 3 -8 9 5 19 17
13 17 15 3 27 -12 10 -13 17 -5 27 6 7 9 21 6 31 -3 10 -5 12 -6 5z m-31
-1371 c0 -5 10 -11 21 -14 18 -5 20 -11 16 -36 -5 -25 -12 -53 -16 -68 -1 -2
-10 6 -20 16 -12 12 -17 27 -14 40 4 15 1 21 -10 21 -20 0 -30 16 -23 35 6 16
46 21 46 6z m-4 -192 c63 -19 69 -110 8 -125 -34 -9 -55 4 -74 44 -19 41 -47
39 -75 -5 -25 -40 -45 -50 -45 -22 0 28 53 79 83 79 14 0 30 -7 37 -15 7 -8
17 -15 23 -15 6 0 19 -7 29 -17 21 -18 23 -6 6 32 -11 24 -29 30 -85 28 -20
-1 -15 7 9 16 30 11 48 11 84 0z m-89 -85 c-3 -3 -12 -4 -19 -1 -8 3 -5 6 6 6
11 1 17 -2 13 -5z m64 -157 c-10 -9 -11 -8 -5 6 3 10 9 15 12 12 3 -3 0 -11
-7 -18z m-232 -40 c8 -11 6 -13 -12 -13 -17 1 -22 -5 -24 -24 -1 -14 0 -18 3
-7 3 9 14 17 25 17 26 0 37 -30 16 -42 -10 -5 -17 -15 -17 -22 0 -18 -42 -29
-52 -13 -4 6 -2 17 4 24 5 7 8 20 4 28 -7 19 13 65 29 65 7 0 18 -6 24 -13z"/>
<path d="M452 2136 c16 -12 16 -14 0 -30 -16 -16 -16 -18 1 -31 18 -13 18 -14
0 -24 -16 -9 -16 -13 -5 -32 12 -18 12 -23 0 -30 -11 -7 -11 -12 0 -30 12 -18
12 -23 0 -30 -10 -7 -10 -13 -2 -27 8 -13 9 -24 2 -37 -8 -14 -7 -21 5 -30 15
-11 15 -13 0 -28 -13 -13 -14 -19 -3 -31 10 -13 10 -19 0 -31 -10 -12 -10 -18
-1 -29 8 -10 9 -16 1 -21 -14 -9 -13 -42 3 -48 9 -4 8 -8 -3 -16 -13 -9 -13
-14 -2 -32 12 -18 12 -23 0 -30 -11 -7 -11 -12 0 -29 10 -17 10 -25 1 -36 -8
-10 -8 -18 0 -27 8 -10 7 -17 -1 -25 -9 -9 -8 -12 5 -12 22 0 34 29 18 40 -10
6 -10 12 0 28 12 19 11 23 -5 35 -17 12 -17 14 -2 20 19 7 21 33 4 40 -10 3
-10 8 1 21 12 15 12 19 -2 33 -15 15 -15 17 1 29 14 10 14 14 3 28 -11 13 -11
19 -1 32 11 12 10 18 -3 31 -15 15 -15 17 1 29 13 10 15 17 6 31 -8 13 -8 23
0 36 8 13 8 20 -2 26 -12 7 -12 12 -1 29 10 16 11 24 2 33 -9 9 -9 16 0 30 9
15 8 21 -7 32 -17 12 -17 14 -2 20 19 7 21 33 4 40 -10 3 -10 7 1 20 11 14 11
20 1 32 -7 8 -18 15 -24 15 -6 0 -3 -6 6 -14z"/>
<path d="M12 2110 c0 -14 2 -19 5 -12 2 6 2 18 0 25 -3 6 -5 1 -5 -13z"/>
<path d="M11 2054 c0 -11 3 -14 6 -6 3 7 2 16 -1 19 -3 4 -6 -2 -5 -13z"/>
<path d="M11 1994 c0 -11 3 -14 6 -6 3 7 2 16 -1 19 -3 4 -6 -2 -5 -13z"/>
<path d="M3555 1970 c-3 -5 1 -10 9 -10 9 0 16 5 16 10 0 6 -4 10 -9 10 -6 0
-13 -4 -16 -10z"/>
<path d="M1980 1953 c0 -15 2 -16 10 -3 7 11 10 4 10 -27 0 -30 4 -43 14 -43
10 0 12 11 10 43 -2 23 -1 36 2 30 8 -18 24 -16 24 2 0 10 -11 15 -35 15 -27
0 -35 -4 -35 -17z"/>
<path d="M2062 1949 c-16 -25 -7 -56 19 -64 25 -8 49 11 49 39 0 45 -45 62
-68 25z m46 -19 c4 -24 -18 -46 -29 -29 -9 16 2 60 15 56 6 -2 13 -14 14 -27z"/>
<path d="M2147 1928 c2 -55 3 -57 13 -33 l9 20 0 -20 c1 -17 3 -17 11 -5 6 10
10 11 10 3 0 -7 6 -13 13 -13 8 0 11 14 9 45 -4 48 -18 60 -25 23 l-4 -23 -8
23 c-13 38 -30 26 -28 -20z"/>
<path d="M2230 1955 c0 -8 2 -15 4 -15 2 0 6 7 10 15 3 8 1 15 -4 15 -6 0 -10
-7 -10 -15z"/>
<path d="M2260 1925 c0 -31 4 -45 14 -45 9 0 12 8 8 25 -2 15 0 25 7 25 6 0
11 -9 11 -21 0 -11 5 -17 10 -14 17 11 11 37 -10 42 -23 6 -26 19 -7 26 6 3 2
6 -10 6 -21 1 -23 -4 -23 -44z"/>
<path d="M2392 1928 c4 -58 25 -61 24 -3 -1 30 -5 45 -14 45 -9 0 -12 -12 -10
-42z"/>
<path d="M12 1920 c0 -14 2 -19 5 -12 2 6 2 18 0 25 -3 6 -5 1 -5 -13z"/>
<path d="M1970 1909 c0 -5 5 -7 10 -4 6 3 10 8 10 11 0 2 -4 4 -10 4 -5 0 -10
-5 -10 -11z"/>
<path d="M11 1744 c0 -11 3 -14 6 -6 3 7 2 16 -1 19 -3 4 -6 -2 -5 -13z"/>
<path d="M11 1594 c0 -11 3 -14 6 -6 3 7 2 16 -1 19 -3 4 -6 -2 -5 -13z"/>
<path d="M45 1560 c-3 -5 -1 -10 4 -10 6 0 11 5 11 10 0 6 -2 10 -4 10 -3 0
-8 -4 -11 -10z"/>
<path d="M12 1490 c0 -14 2 -19 5 -12 2 6 2 18 0 25 -3 6 -5 1 -5 -13z"/>
<path d="M3870 1499 c0 -5 5 -7 10 -4 6 3 10 8 10 11 0 2 -4 4 -10 4 -5 0 -10
-5 -10 -11z"/>
<path d="M3770 1485 c0 -8 2 -15 4 -15 2 0 6 7 10 15 3 8 1 15 -4 15 -6 0 -10
-7 -10 -15z"/>
<path d="M3782 1422 c1 -32 4 -39 10 -27 6 9 6 26 -1 43 -9 25 -9 24 -9 -16z"/>
<path d="M13 1400 c0 -30 2 -43 4 -27 2 15 2 39 0 55 -2 15 -4 2 -4 -28z"/>
<path d="M2088 1433 c6 -2 18 -2 25 0 6 3 1 5 -13 5 -14 0 -19 -2 -12 -5z"/>
<path d="M2148 1433 c7 -3 16 -2 19 1 4 3 -2 6 -13 5 -11 0 -14 -3 -6 -6z"/>
<path d="M2305 1430 c-3 -6 1 -7 9 -4 18 7 21 14 7 14 -6 0 -13 -4 -16 -10z"/>
<path d="M450 1415 c10 -12 10 -18 0 -30 -10 -12 -10 -18 1 -31 10 -13 10 -17
-2 -24 -12 -8 -12 -13 0 -32 10 -16 10 -23 2 -26 -17 -6 -13 -32 5 -39 15 -6
15 -8 -2 -20 -16 -12 -17 -16 -5 -35 10 -16 10 -23 2 -26 -16 -5 -14 -32 4
-39 13 -5 13 -8 -5 -20 -18 -13 -19 -16 -5 -30 14 -14 14 -17 -1 -34 -16 -17
-16 -20 0 -44 14 -21 15 -29 5 -41 -6 -7 -9 -22 -7 -32 3 -10 -1 -27 -8 -36
-13 -18 -9 -46 7 -46 5 0 9 9 9 19 0 13 6 18 18 17 23 -4 24 -52 0 -50 -9 1
-18 -6 -21 -16 -3 -13 0 -16 14 -13 11 3 19 10 19 15 0 5 10 8 23 6 19 -3 22
-10 24 -48 1 -36 -1 -40 -8 -22 -5 13 -13 20 -19 17 -17 -10 -11 -34 11 -45
24 -13 81 -4 60 10 -8 4 -10 13 -6 20 4 6 -1 17 -11 25 -11 8 -15 15 -11 15
15 0 -14 40 -29 40 -11 0 -13 6 -9 19 6 20 -19 54 -46 63 -12 4 -12 9 0 31 12
23 12 31 1 52 -10 19 -10 27 -1 39 7 8 11 23 10 33 -1 10 1 26 6 36 4 11 3 23
-3 29 -7 7 -7 16 1 29 9 15 8 21 -7 32 -17 12 -17 14 -2 20 18 7 22 33 5 39
-8 3 -8 10 2 27 12 20 12 24 -4 35 -15 12 -16 14 -2 20 18 6 20 33 4 38 -8 3
-8 10 2 26 12 20 12 24 -1 32 -23 15 -34 12 -20 -5z"/>
<path d="M3730 1391 c0 -5 7 -11 15 -15 9 -3 15 0 15 9 0 8 -7 15 -15 15 -8 0
-15 -4 -15 -9z"/>
<path d="M730 1333 c0 -13 2 -15 8 -5 5 7 16 10 25 6 10 -3 17 -1 17 5 0 6
-11 11 -25 11 -17 0 -25 -5 -25 -17z"/>
<path d="M11 1314 c0 -11 3 -14 6 -6 3 7 2 16 -1 19 -3 4 -6 -2 -5 -13z"/>
<path d="M870 1302 c0 -10 60 -45 66 -39 3 2 -11 14 -31 25 -19 12 -35 18 -35
14z"/>
<path d="M880 1238 c0 -10 19 -9 45 2 16 7 14 8 -12 7 -18 -1 -33 -5 -33 -9z"/>
<path d="M942 1224 c-14 -15 -7 -17 22 -5 15 6 16 9 5 13 -8 3 -20 -1 -27 -8z"/>
<path d="M1000 1209 c0 -24 -4 -30 -15 -25 -8 3 -15 1 -15 -4 0 -6 9 -10 20
-10 16 0 20 7 20 35 0 19 -2 35 -5 35 -3 0 -5 -14 -5 -31z"/>
<path d="M1052 1190 c0 -14 2 -19 5 -12 2 6 2 18 0 25 -3 6 -5 1 -5 -13z"/>
<path d="M915 1180 c-3 -6 1 -7 9 -4 18 7 21 14 7 14 -6 0 -13 -4 -16 -10z"/>
<path d="M11 1154 c0 -11 3 -14 6 -6 3 7 2 16 -1 19 -3 4 -6 -2 -5 -13z"/>
<path d="M950 1140 c0 -5 5 -10 10 -10 6 0 10 5 10 10 0 6 -4 10 -10 10 -5 0
-10 -4 -10 -10z"/>
<path d="M1135 1123 c11 -3 25 -9 31 -14 7 -6 15 -4 22 3 8 10 1 13 -31 14
-23 1 -33 -1 -22 -3z"/>
<path d="M1095 1100 c-3 -5 -1 -10 4 -10 6 0 11 5 11 10 0 6 -2 10 -4 10 -3 0
-8 -4 -11 -10z"/>
<path d="M12 980 c0 -14 2 -19 5 -12 2 6 2 18 0 25 -3 6 -5 1 -5 -13z"/>
<path d="M1800 950 l0 -50 34 0 c34 0 34 0 38 50 l3 50 -37 0 -38 0 0 -50z
m48 3 c-3 -42 -21 -51 -26 -15 -4 29 4 52 18 52 7 0 10 -15 8 -37z"/>
<path d="M1888 949 l-3 -50 35 3 c26 2 36 8 39 23 3 19 3 19 -16 2 -20 -18
-33 -14 -33 11 0 12 3 12 15 2 12 -10 15 -10 15 3 0 14 28 37 44 37 11 0 6
-56 -6 -68 -9 -9 -7 -12 10 -12 19 0 22 5 22 41 0 24 4 38 10 34 6 -3 10 0 10
9 0 11 -15 14 -69 14 l-69 0 -4 -49z m52 27 c0 -11 -19 -15 -25 -6 -3 5 1 10
9 10 9 0 16 -2 16 -4z"/>
<path d="M2040 950 l0 -50 35 0 c24 0 35 5 35 15 0 8 -4 15 -10 15 -14 0 -13
37 2 42 21 7 -3 28 -33 28 -28 0 -29 -1 -29 -50z m45 19 c-10 -15 -25 -10 -19
6 4 8 10 12 15 9 5 -3 7 -10 4 -15z m-4 -42 c-1 -12 -15 -9 -19 4 -3 6 1 10 8
8 6 -3 11 -8 11 -12z"/>
<path d="M2123 950 c1 -33 6 -50 14 -50 9 0 11 12 8 40 -3 24 -1 40 5 40 5 0
10 -9 10 -20 0 -11 5 -20 10 -20 16 0 11 47 -6 54 -37 14 -43 7 -41 -44z"/>
<path d="M2195 950 c0 -52 9 -60 49 -44 23 9 20 45 -4 51 -11 3 -20 12 -20 19
0 17 12 18 28 2 9 -9 12 -8 12 5 0 13 -9 17 -32 17 -33 0 -33 0 -33 -50z m45
-21 c0 -5 -4 -9 -10 -9 -5 0 -10 7 -10 16 0 8 5 12 10 9 6 -3 10 -10 10 -16z"/>
<path d="M2270 995 c0 -4 7 -19 15 -35 9 -17 11 -30 5 -30 -5 0 -10 -7 -10
-16 0 -32 34 -9 45 30 17 59 38 60 34 2 -3 -36 -1 -46 11 -46 12 0 15 9 12 40
-3 27 0 40 8 40 8 0 10 -8 7 -21 -3 -13 -1 -19 6 -16 18 6 21 38 5 48 -7 5
-30 9 -50 9 -35 0 -38 -2 -38 -27 -1 -24 -2 -26 -11 -10 -5 9 -7 22 -4 27 3 6
-3 10 -14 10 -12 0 -21 -2 -21 -5z"/>
<path d="M2439 997 c0 -1 -3 -23 -5 -49 -5 -42 -3 -48 13 -48 16 0 18 6 15 40
-4 40 -3 41 22 34 16 -4 26 -2 26 5 0 6 5 11 10 11 6 0 10 -20 10 -45 0 -41 2
-45 24 -45 13 0 29 7 36 15 10 12 7 19 -14 38 -19 18 -22 27 -14 35 8 8 -6 11
-55 11 -37 -1 -67 -1 -68 -2z m131 -69 c0 -16 -3 -19 -11 -11 -6 6 -8 16 -5
22 11 17 16 13 16 -11z"/>
<path d="M12 915 c0 -16 2 -22 5 -12 2 9 2 23 0 30 -3 6 -5 -1 -5 -18z"/>
<path d="M1168 833 c7 -3 16 -2 19 1 4 3 -2 6 -13 5 -11 0 -14 -3 -6 -6z"/>
<path d="M1291 821 c-7 -5 -12 -13 -10 -19 2 -6 14 -2 28 9 23 19 9 27 -18 10z"/>
<path d="M12 785 c0 -16 2 -22 5 -12 2 9 2 23 0 30 -3 6 -5 -1 -5 -18z"/>
<path d="M1225 796 c-18 -13 -18 -14 8 -9 15 3 27 9 27 14 0 13 -13 11 -35 -5z"/>
<path d="M1240 773 c-11 -3 -16 -15 -15 -42 l0 -39 105 2 c102 1 104 1 110 26
5 23 7 23 13 6 5 -12 3 -22 -5 -27 -10 -7 -10 -11 0 -21 11 -11 16 -9 28 6 8
11 14 26 14 33 0 7 5 13 10 13 6 0 10 -9 10 -20 0 -17 7 -20 38 -20 37 0 38 1
34 31 l-4 30 -104 -2 c-57 -1 -106 0 -109 3 -13 13 -45 -5 -45 -25 0 -26 -8
-18 -13 13 -4 24 -36 40 -67 33z"/>
<path d="M718 735 c5 -44 22 -46 23 -2 l2 32 4 -30 c7 -47 20 -51 25 -6 3 40
3 41 -27 41 -29 0 -31 -2 -27 -35z"/>
<path d="M963 735 c5 -51 17 -56 15 -7 -1 23 -5 42 -10 42 -5 0 -7 -16 -5 -35z"/>
<path d="M1087 748 c-2 -13 -8 -31 -12 -40 -4 -11 -3 -18 3 -18 6 0 13 8 15
18 4 15 5 15 6 -2 1 -16 7 -18 42 -13 47 6 54 11 43 28 -5 9 -10 8 -19 -4 -10
-14 -14 -12 -28 18 -19 40 -42 46 -50 13z"/>
<path d="M1878 738 c-6 -39 15 -55 53 -41 17 7 31 8 35 2 6 -11 24 -2 24 12 0
5 -6 9 -13 9 -7 0 -17 10 -22 23 -7 16 -19 22 -42 23 -27 1 -32 -3 -35 -28z
m42 13 c0 -5 -7 -11 -14 -14 -10 -4 -13 -1 -9 9 6 15 23 19 23 5z"/>
<path d="M2030 728 l0 -38 45 0 45 0 0 39 0 40 -45 -2 -45 -2 0 -37z m47 -15
c-3 -10 -5 -4 -5 12 0 17 2 24 5 18 2 -7 2 -21 0 -30z"/>
<path d="M2555 758 c-3 -7 -6 -24 -7 -38 -3 -23 1 -25 38 -28 l41 -3 1 41 c2
39 1 40 -33 40 -20 0 -38 -6 -40 -12z"/>
<path d="M2704 730 c0 -40 0 -40 37 -40 21 0 41 5 45 11 4 8 9 8 17 0 14 -14
47 -14 47 0 0 5 -4 7 -10 4 -5 -3 -10 -1 -10 4 0 6 7 11 16 11 14 0 14 3 4 15
-16 19 -29 19 -51 -1 -16 -15 -17 -14 -12 4 5 20 -18 32 -62 32 -18 0 -21 -6
-21 -40z"/>
<path d="M2880 754 c0 -8 -4 -13 -8 -10 -5 3 -9 -8 -10 -24 -1 -28 2 -30 36
-31 20 0 51 -1 68 -2 28 -2 30 0 30 30 -1 28 -5 33 -24 33 -18 0 -23 -5 -20
-22 2 -11 -3 -23 -11 -26 -10 -3 -12 2 -7 21 6 27 -4 39 -36 44 -11 2 -18 -3
-18 -13z"/>
<path d="M420 729 c0 -21 7 -42 15 -49 11 -9 13 -16 5 -24 -17 -17 -11 -22 25
-18 38 5 43 16 19 47 -13 17 -16 18 -24 5 -5 -8 -10 -13 -10 -10 0 3 -7 23
-15 45 l-14 40 -1 -36z"/>
<path d="M12 725 c0 -16 2 -22 5 -12 2 9 2 23 0 30 -3 6 -5 -1 -5 -18z"/>
<path d="M785 741 c-3 -6 -1 -11 4 -11 6 0 11 -8 11 -17 0 -16 -2 -16 -11 -3
-8 12 -10 12 -7 1 3 -9 21 -16 47 -18 33 -3 41 -1 35 9 -6 10 -5 11 8 1 18
-16 28 -7 28 24 0 27 -26 32 -33 6 -4 -17 -5 -17 -6 0 -2 26 -18 20 -26 -10
l-8 -28 -6 24 c-7 27 -26 38 -36 22z m102 -23 c-3 -8 -6 -5 -6 6 -1 11 2 17 5
13 3 -3 4 -12 1 -19z"/>
<path d="M914 735 c-4 -8 -3 -23 2 -32 6 -15 8 -13 14 12 6 25 8 26 9 7 0 -13
5 -21 10 -18 14 9 1 46 -15 46 -8 0 -17 -7 -20 -15z"/>
<path d="M990 720 c6 -25 40 -42 40 -20 0 6 -4 8 -10 5 -5 -3 -10 1 -10 10 0
9 5 13 10 10 6 -3 10 1 10 9 0 10 -8 15 -24 14 -20 -2 -22 -6 -16 -28z"/>
<path d="M1597 743 c-12 -12 -7 -43 7 -49 8 -3 24 -1 35 6 14 7 21 7 21 0 0
-6 28 -9 79 -6 70 3 79 2 74 -13 -4 -12 -1 -12 11 3 17 21 12 40 -9 32 -7 -2
-15 4 -18 15 -8 28 -54 26 -60 -3 l-4 -23 -2 23 c-1 19 -7 22 -42 22 -29 0
-38 -3 -33 -12 6 -10 4 -10 -7 0 -14 13 -42 16 -52 5z"/>
<path d="M2137 743 c-4 -3 -7 -21 -7 -40 0 -27 4 -33 21 -33 11 0 18 4 15 9
-9 14 18 20 64 14 41 -6 42 -6 38 23 -4 38 -44 47 -56 13 l-9 -23 -5 22 c-6
21 -45 31 -61 15z"/>
<path d="M2278 721 c3 -24 9 -30 37 -33 31 -4 33 -2 33 29 0 31 -2 33 -37 33
-36 0 -37 -1 -33 -29z"/>
<path d="M2367 743 c-4 -3 -7 -17 -7 -30 0 -19 5 -23 30 -23 30 0 37 11 24 44
-6 16 -35 22 -47 9z"/>
<path d="M2460 720 c0 -25 4 -30 23 -30 20 0 24 5 24 30 0 25 -4 30 -24 30
-19 0 -23 -5 -23 -30z"/>
<path d="M3013 743 c-7 -2 -13 -13 -13 -23 0 -22 37 -37 54 -20 8 8 7 10 -6 5
-11 -4 -18 -2 -18 4 0 6 7 11 16 11 9 0 14 6 12 13 -5 13 -26 18 -45 10z"/>
<path d="M3070 720 l0 -30 96 0 c91 0 95 1 89 20 -5 15 -3 18 9 14 8 -3 12
-12 9 -20 -3 -9 2 -14 16 -14 14 0 21 6 21 20 0 11 5 20 10 20 6 0 10 -13 10
-30 0 -24 4 -30 21 -30 14 0 19 5 16 14 -5 12 4 13 43 10 53 -5 67 5 50 36
-13 24 -57 24 -52 0 2 -11 -1 -11 -11 2 -12 15 -32 17 -130 17 l-116 0 -4 -27
-4 -27 -2 28 c-1 24 -5 27 -36 27 -32 0 -35 -2 -35 -30z"/>
<path d="M3470 742 c0 -4 6 -14 12 -20 10 -10 10 -15 -2 -22 -10 -6 -11 -13
-5 -19 13 -13 28 -2 43 33 10 22 16 27 22 16 4 -7 6 -19 4 -25 -5 -11 5 -12
51 -6 5 0 4 6 -2 12 -6 6 -9 18 -6 25 4 11 -8 14 -56 14 -34 0 -61 -4 -61 -8z"/>
<path d="M3614 735 c-10 -25 3 -42 28 -39 12 1 27 3 32 3 4 1 6 7 3 15 -3 7
-2 17 3 22 5 5 -6 10 -26 12 -23 1 -36 -3 -40 -13z"/>
<path d="M636 726 c3 -8 -3 -19 -15 -26 -23 -12 -57 -70 -41 -70 5 0 10 4 10
8 0 5 7 17 16 28 8 10 13 14 10 8 -3 -7 0 -14 8 -17 9 -4 16 3 20 16 9 34 7
67 -4 67 -5 0 -7 -6 -4 -14z"/>
<path d="M2640 705 c0 -9 5 -15 11 -13 6 2 11 8 11 13 0 5 -5 11 -11 13 -6 2
-11 -4 -11 -13z"/>
<path d="M567 609 c61 -29 80 -49 97 -106 12 -38 -17 -27 -39 15 -28 52 -62
52 -80 -1 -7 -21 -11 -36 -8 -33 3 3 14 1 25 -5 14 -7 23 -7 33 1 8 6 16 7 19
2 3 -5 17 -12 32 -15 20 -4 27 0 35 21 5 13 7 27 4 30 -3 3 -5 -1 -5 -9 0 -8
-9 4 -19 27 -19 41 -51 69 -104 92 -58 25 -49 9 10 -19z"/>
<path d="M449 591 c-16 -16 -29 -35 -29 -43 1 -7 8 0 16 15 9 16 30 35 47 42
20 9 25 14 14 15 -10 0 -32 -13 -48 -29z"/>
<path d="M534 585 c-12 -8 -24 -11 -28 -7 -11 10 -26 -20 -26 -53 1 -27 2 -28
12 -11 6 11 26 35 44 53 35 34 33 44 -2 18z"/>
<path d="M2133 582 c-14 -9 -14 -80 -2 -88 18 -11 37 17 36 51 -1 34 -15 49
-34 37z m17 -18 c0 -8 -5 -12 -10 -9 -6 4 -8 11 -5 16 9 14 15 11 15 -7z m5
-44 c3 -5 -1 -10 -9 -10 -9 0 -16 5 -16 10 0 6 4 10 9 10 6 0 13 -4 16 -10z"/>
<path d="M2190 570 c-17 -31 -9 -65 15 -65 17 0 20 7 20 39 -1 45 -18 58 -35
26z m17 -52 c-3 -7 -5 -2 -5 12 0 14 2 19 5 13 2 -7 2 -19 0 -25z"/>
<path d="M2245 580 c-3 -6 1 -13 10 -16 12 -5 14 -15 9 -43 -5 -25 -3 -33 4
-26 6 6 14 29 18 53 6 38 5 42 -14 42 -12 0 -24 -5 -27 -10z"/>
<path d="M2066 563 c-4 -9 -3 -19 1 -22 4 -3 8 -14 8 -23 0 -10 3 -18 8 -18 4
0 7 2 7 5 0 3 0 21 0 40 0 37 -13 47 -24 18z"/>
<path d="M13 505 c0 -27 2 -38 4 -22 2 15 2 37 0 50 -2 12 -4 0 -4 -28z"/>
<path d="M2310 510 c0 -5 5 -10 10 -10 6 0 10 5 10 10 0 6 -4 10 -10 10 -5 0
-10 -4 -10 -10z"/>
<path d="M705 460 c11 -18 -17 -77 -45 -94 -15 -8 -30 -12 -34 -8 -4 4 -5 -5
-1 -19 10 -41 -46 -69 -84 -42 -31 21 -26 33 9 23 28 -8 32 -6 41 17 6 17 6
30 -1 38 -8 9 -7 15 2 18 8 4 7 6 -4 6 -10 1 -18 8 -18 16 0 8 -7 15 -15 15
-8 0 -15 8 -16 18 0 10 -3 12 -6 5 -2 -7 -9 -13 -14 -13 -19 0 -50 -41 -44
-60 8 -24 -9 -34 -26 -14 -10 13 -10 19 0 36 11 18 11 20 -4 14 -9 -3 -19 -6
-21 -6 -2 0 -4 -10 -4 -23 0 -31 18 -47 51 -47 15 0 30 -4 34 -9 3 -5 -8 -9
-23 -9 -37 1 -55 -10 -48 -29 3 -8 1 -11 -4 -8 -13 8 -13 -1 0 -26 13 -23 43
-25 60 -4 14 17 5 36 -15 28 -8 -3 -15 0 -15 6 0 20 27 23 59 6 17 -8 31 -18
31 -20 0 -3 -15 -11 -33 -19 -87 -36 -134 -165 -57 -152 47 7 78 32 108 85
l27 49 17 -36 c11 -26 13 -41 6 -49 -14 -17 -29 -7 -21 14 8 20 -17 13 -31 -9
-12 -20 8 -48 35 -48 36 0 51 67 22 98 -20 21 -16 80 6 92 11 5 27 7 35 4 11
-4 16 0 16 14 0 29 49 64 80 60 25 -4 26 -2 26 44 0 26 -1 48 -2 48 -2 0 -14
-4 -28 -10 -17 -6 -26 -6 -26 0 0 6 -7 10 -16 10 -8 0 -12 -5 -9 -10z"/>
<path d="M604 447 c11 -8 17 -21 13 -30 -4 -10 2 -17 16 -21 32 -8 44 -7 28 3
-13 8 -13 12 -1 28 14 17 14 17 -6 0 -20 -16 -21 -16 -20 5 1 17 -5 24 -24 26
-24 3 -24 3 -6 -11z"/>
<path d="M12 430 c0 -14 2 -19 5 -12 2 6 2 18 0 25 -3 6 -5 1 -5 -13z"/>
<path d="M800 365 c-7 -9 -10 -26 -6 -42 4 -16 7 -40 6 -55 0 -15 4 -29 10
-33 13 -8 56 15 43 24 -5 3 -13 15 -17 26 -4 14 1 11 17 -9 20 -25 25 -27 30
-13 5 12 -4 24 -32 42 -22 13 -42 28 -44 33 -7 11 4 28 23 35 13 4 12 6 -1 6
-9 1 -22 -6 -29 -14z"/>
<path d="M855 343 c47 -26 64 -52 53 -85 -6 -15 -16 -28 -24 -28 -8 0 -14 -8
-14 -17 0 -9 -8 -25 -17 -36 -17 -19 -17 -19 7 -12 30 9 54 33 55 54 5 69 4
69 27 26 11 -22 22 -57 23 -78 3 -45 12 -57 26 -37 8 13 11 13 22 0 6 -8 28
-16 47 -17 l35 -3 -29 15 c-15 8 -35 15 -42 15 -19 0 -18 10 2 25 15 10 13 13
-14 18 -26 5 -37 17 -61 65 -31 62 -81 112 -109 112 -11 -1 -6 -7 13 -17z"/>
<path d="M1004 335 c-12 -8 -25 -11 -29 -7 -5 4 -5 -1 -2 -11 4 -10 2 -27 -4
-38 -10 -19 -9 -20 19 -5 16 8 32 24 35 36 3 13 13 20 29 20 18 0 20 2 8 10
-21 13 -32 12 -56 -5z"/>
<path d="M720 291 c1 -25 1 -25 16 -6 12 17 17 18 35 6 17 -10 20 -10 17 0 -3
8 -19 16 -36 20 -30 6 -32 4 -32 -20z"/>
<path d="M1042 265 c-20 -25 -20 -46 1 -72 15 -20 38 -15 44 8 8 28 47 22 51
-8 2 -13 -1 -23 -7 -23 -6 0 -11 -10 -11 -21 0 -18 2 -19 15 -9 8 7 13 16 10
20 -3 4 2 13 10 20 12 10 18 10 30 0 9 -7 14 -19 11 -26 -3 -8 -2 -13 2 -12 4
1 15 -2 25 -7 11 -4 28 -3 41 5 19 9 27 9 44 -1 17 -11 25 -11 46 0 21 12 28
12 42 0 14 -11 18 -11 29 5 13 17 14 17 24 -1 9 -16 12 -16 32 -4 17 10 24 10
27 2 5 -16 32 -14 39 4 5 14 8 14 24 -1 16 -14 21 -15 35 -3 14 11 18 11 21 2
7 -19 40 -16 47 4 6 14 8 14 20 -3 12 -16 16 -17 32 -4 13 12 18 12 21 3 7
-19 40 -16 48 5 6 16 7 16 16 0 11 -20 35 -24 41 -7 3 8 10 8 27 -2 19 -12 24
-12 35 3 11 15 13 15 23 0 10 -16 12 -16 30 1 19 17 21 17 27 1 4 -9 9 -15 11
-12 9 9 -7 38 -21 38 -7 0 -17 -7 -22 -16 -8 -15 -10 -15 -15 0 -8 21 -36 21
-44 0 -6 -15 -8 -15 -20 2 -12 16 -16 17 -35 5 -17 -11 -22 -11 -29 1 -7 11
-12 11 -31 -1 -16 -10 -23 -10 -26 -2 -5 14 -42 15 -42 1 0 -5 -4 -10 -10 -10
-5 0 -10 7 -10 15 0 20 -15 19 -36 -2 -13 -13 -19 -14 -22 -5 -5 15 -39 16
-44 1 -3 -8 -10 -8 -27 2 -20 12 -23 12 -33 -4 -9 -18 -11 -18 -26 4 -15 21
-16 21 -30 3 -10 -13 -16 -15 -19 -6 -6 15 -40 16 -45 1 -3 -8 -10 -8 -25 2
-19 11 -25 11 -42 -5 -18 -16 -21 -16 -44 -2 -22 15 -26 15 -37 1 -19 -22 -34
-18 -59 16 -16 21 -29 29 -42 26 -12 -3 -20 2 -24 14 -4 12 -16 19 -31 19 -13
0 -24 5 -24 11 0 6 -9 9 -20 6 -22 -6 -29 18 -7 26 6 2 9 7 6 11 -4 4 -16 -5
-27 -19z"/>
<path d="M663 270 c-42 -17 -20 -105 30 -116 62 -13 83 64 29 106 -28 22 -28
22 -59 10z"/>
<path d="M3322 273 c9 -2 19 -11 22 -20 5 -13 4 -13 -7 -4 -11 9 -17 8 -27 -4
-7 -8 -21 -15 -31 -15 -10 0 -24 -9 -31 -20 -7 -11 -23 -20 -35 -20 -12 0 -30
-12 -42 -27 -17 -25 -22 -26 -40 -15 -27 16 -58 16 -64 0 -3 -10 -9 -10 -29 1
-15 7 -31 10 -38 6 -6 -4 -19 0 -29 9 -16 15 -20 15 -30 2 -10 -12 -17 -13
-32 -3 -17 10 -23 9 -34 -6 -13 -18 -14 -18 -24 0 -9 16 -13 16 -31 5 -19 -11
-24 -11 -34 4 -12 16 -14 15 -29 -6 -14 -20 -17 -21 -23 -7 -7 20 -40 23 -48
5 -5 -10 -7 -10 -12 0 -3 6 -14 12 -24 12 -10 0 -21 -6 -23 -12 -4 -10 -8 -9
-16 2 -9 13 -13 13 -33 1 -16 -10 -23 -10 -26 -2 -5 14 -39 14 -44 0 -3 -8
-10 -8 -26 2 -19 12 -24 12 -31 1 -7 -12 -12 -12 -30 0 -18 11 -23 11 -31 -1
-7 -12 -11 -12 -24 -2 -12 10 -19 11 -30 2 -11 -9 -19 -9 -36 1 -18 11 -23 11
-31 -5 -10 -18 -11 -18 -24 0 -11 15 -17 16 -33 6 -15 -9 -22 -8 -35 4 -14 14
-16 13 -27 -8 -12 -22 -13 -22 -27 -4 -11 15 -17 17 -31 9 -12 -8 -22 -8 -35
0 -14 8 -20 8 -27 -4 -15 -24 -11 -37 5 -16 8 11 15 15 15 9 0 -18 31 -24 48
-11 12 10 16 10 19 0 7 -18 30 -15 42 5 9 17 10 17 16 0 9 -22 31 -22 40 1 6
16 7 16 20 -2 15 -19 45 -16 45 5 0 8 7 5 19 -5 17 -15 21 -15 33 -3 11 13 15
13 29 1 15 -13 19 -13 33 2 16 15 18 15 32 -2 13 -18 15 -18 28 -1 9 12 16 14
21 8 8 -15 45 -14 45 1 0 6 9 3 21 -8 20 -18 21 -18 35 1 13 18 15 18 27 1 13
-17 14 -17 31 -1 16 17 18 17 30 0 12 -16 13 -16 30 0 16 17 18 16 31 -1 12
-17 14 -18 32 -2 16 14 20 14 31 1 12 -13 16 -12 32 2 16 14 18 14 23 0 8 -20
34 -19 46 3 9 16 10 16 16 -1 9 -22 31 -22 39 0 6 15 8 15 20 -2 10 -14 17
-15 33 -6 16 8 24 7 33 -4 16 -19 29 -19 51 1 16 14 20 14 43 -1 14 -9 30 -14
35 -10 6 3 20 1 32 -5 16 -9 24 -8 38 4 15 14 20 14 45 1 34 -18 97 -20 114
-3 9 9 15 9 24 0 20 -20 23 -14 20 33 -3 32 0 45 9 45 7 0 10 -3 6 -6 -9 -10
21 -62 42 -74 11 -5 32 -10 48 -9 27 1 27 1 -6 9 -49 12 -72 39 -74 88 -2 49
-11 54 -25 13 -6 -17 -23 -34 -41 -42 -34 -15 -40 -29 -13 -29 9 -1 1 -8 -18
-16 -38 -17 -80 -6 -80 20 0 7 -7 17 -15 20 -13 5 -14 10 -5 26 13 23 45 23
45 0 0 -19 32 -25 50 -10 31 26 4 92 -36 89 -9 -1 -9 -3 3 -6z m-83 -102 c16
-10 6 -31 -14 -31 -17 0 -28 17 -20 30 8 12 16 12 34 1z"/>
<path d="M11 244 c0 -11 3 -14 6 -6 3 7 2 16 -1 19 -3 4 -6 -2 -5 -13z"/>
<path d="M797 206 c-4 -10 -7 -25 -6 -34 0 -11 4 -9 10 7 5 13 8 29 6 35 -2 5
-6 2 -10 -8z"/>
<path d="M919 149 c-17 -18 -22 -29 -13 -29 13 0 50 47 43 54 -2 2 -16 -9 -30
-25z"/>
<path d="M4098 163 c6 -2 18 -2 25 0 6 3 1 5 -13 5 -14 0 -19 -2 -12 -5z"/>
<path d="M660 137 c0 -8 7 -20 16 -28 17 -14 45 -3 52 22 4 11 2 12 -9 2 -17
-17 -24 -16 -43 3 -13 13 -16 13 -16 1z"/>
<path d="M816 130 c12 -13 27 -21 33 -19 6 2 -4 12 -22 22 l-32 18 21 -21z"/>
<path d="M1165 130 c7 -12 45 -14 45 -2 0 4 -11 9 -26 10 -14 1 -23 -2 -19 -8z"/>
</g>
</svg>
